<svg width="30" height="30" viewBox="0 0 30 30" fill="none" xmlns="http://www.w3.org/2000/svg">
<rect width="30" height="30" rx="5" fill="white"/>
<g clip-path="url(#clip0_336_1221)">
<path d="M23.2667 23.4375L23.3417 22.596C23.3912 22.0513 23.2406 21.5072 22.918 21.0654C22.5954 20.6237 22.1229 20.3146 21.589 20.196L18.46 19.5V15C18.46 14.7016 18.3414 14.4155 18.1305 14.2045C17.9195 13.9935 17.6333 13.875 17.335 13.875C17.0366 13.875 16.7504 13.9935 16.5395 14.2045C16.3285 14.4155 16.21 14.7016 16.21 15V22.3125L14.935 21.354C14.7137 21.1878 14.4399 21.1071 14.1639 21.1266C13.8879 21.1461 13.6282 21.2646 13.4325 21.4603C13.2368 21.6559 13.1183 21.9157 13.0988 22.1917C13.0793 22.4677 13.16 22.7415 13.3262 22.9628L13.6817 23.4375M13.96 16.6875H7.77246C7.47409 16.6875 7.18794 16.569 6.97697 16.358C6.76599 16.147 6.64746 15.8609 6.64746 15.5625V7.6875C6.64746 7.38913 6.76599 7.10298 6.97697 6.892C7.18794 6.68103 7.47409 6.5625 7.77246 6.5625H9.45996M18.46 6.5625H20.1475C20.4458 6.5625 20.732 6.68103 20.943 6.892C21.1539 7.10298 21.2725 7.38913 21.2725 7.6875V15.5625C21.2725 15.8609 21.1539 16.147 20.943 16.358C20.732 16.569 20.4458 16.6875 20.1475 16.6875M13.3975 16.6875V18.9375M11.71 18.9375H13.96" stroke="#D3A77D" stroke-width="1.125" stroke-linecap="round" stroke-linejoin="round"/>
<path d="M17.5432 11.646L17.8244 10.896C17.8881 10.7261 17.9096 10.5433 17.8873 10.3633C17.8651 10.1832 17.7995 10.0112 17.6964 9.86194C17.5933 9.71268 17.4555 9.59058 17.295 9.50605C17.1345 9.42152 16.9559 9.37707 16.7744 9.3765H11.0182C10.8366 9.37656 10.6578 9.42057 10.4969 9.50476C10.336 9.58895 10.1979 9.71082 10.0944 9.85998C9.99086 10.0091 9.92496 10.1811 9.90233 10.3613C9.8797 10.5414 9.901 10.7244 9.96443 10.8945L10.9454 13.5097C10.9855 13.6167 11.0572 13.709 11.151 13.7742C11.2448 13.8395 11.3562 13.8746 11.4704 13.875H13.9582M11.0819 9.375L12.2069 6.5625M16.7069 9.375L15.5819 6.5625" stroke="#D3A77D" stroke-width="1.125" stroke-linecap="round" stroke-linejoin="round"/>
</g>
<defs>
<clipPath id="clip0_336_1221">
<rect width="18" height="18" fill="white" transform="translate(6 6)"/>
</clipPath>
</defs>
</svg>
