<svg width="41" height="32" viewBox="0 0 41 32" fill="none" xmlns="http://www.w3.org/2000/svg">
<path d="M22.711 29.8868C30.6878 29.8868 37.1544 23.4203 37.1544 15.4434C37.1544 7.46653 30.6878 1 22.711 1C14.7341 1 8.26758 7.46653 8.26758 15.4434C8.26758 23.4203 14.7341 29.8868 22.711 29.8868Z" fill="#808181"/>
<path d="M15.6164 5.05975L15.8937 8.56815C23.2379 8.3468 27.8874 9.32188 30.4149 9.86674L31.5346 6.97058C31.7152 6.50346 31.5229 5.9718 31.0734 5.75085C25.6237 3.07163 19.7536 3.36956 16.3809 4.02816C15.8984 4.12238 15.5777 4.56966 15.6164 5.05975Z" fill="#121313" stroke="#808181" stroke-width="0.75"/>
<path d="M39.2896 13.9125C39.2608 14.263 38.9248 14.6829 38.0552 15.0966C37.2138 15.4969 35.9913 15.832 34.4617 16.077C31.4084 16.5661 27.2166 16.6833 22.6144 16.3054C18.0121 15.9275 13.8956 15.1279 10.963 14.1472C9.49388 13.6559 8.34242 13.1259 7.57759 12.5937C6.78709 12.0436 6.52409 11.5747 6.55288 11.2241C6.58167 10.8735 6.91767 10.4536 7.78732 10.0399C8.62872 9.63965 9.85123 9.30456 11.3808 9.05954C14.4341 8.57045 18.6259 8.45322 23.2282 8.83118C27.8304 9.20913 31.947 10.0086 34.8795 10.9893C36.3486 11.4806 37.5001 12.0107 38.2649 12.5429C39.0554 13.0929 39.3184 13.5619 39.2896 13.9125Z" fill="#121313" stroke="#808181" stroke-width="0.75"/>
<path d="M6.62305 11.6462C6.62305 11.6462 19.0337 9.4124 39.1893 14.1252" stroke="#808181" stroke-width="0.75"/>
<path d="M15.2788 15.5326C15.2788 14.1047 15.8079 11.8371 16.0739 11.1473C16.0739 11.1473 19.0055 11.1224 21.9619 11.346C24.9183 11.5696 27.8748 12.0665 27.8748 12.0665C27.6122 18.0726 25.2165 24.4636 20.53 25.1234C17.4082 25.5629 16.0205 23.1947 15.6693 21.7216C9.53246 20.8635 4.16707 22.3795 2 23.515C6.08992 16.8499 12.0371 15.9227 15.2788 15.5326Z" fill="#121313" stroke="#808181" stroke-width="0.75"/>
<path d="M21.7873 15.7609C21.5832 17.1164 20.4454 18.0001 19.3123 17.8294C18.1792 17.6587 17.3523 16.4791 17.5564 15.1237C17.7606 13.7682 18.8983 12.8845 20.0314 13.0552C21.1645 13.2259 21.9915 14.4055 21.7873 15.7609Z" fill="#121313" stroke="#808181" stroke-width="0.75"/>
<path d="M17.703 14.8636C17.4712 14.7384 16.7007 14.5096 15.4727 14.5963" stroke="#808181" stroke-width="0.75"/>
<path d="M32.4525 25.5314C28.6138 22.5536 28.8019 15.4658 29.4225 12.4027L27.8514 12.1992C26.5945 22.7844 21.4538 25.8167 19.1858 25.1091L18.0879 28.6866C25.5163 30.9474 30.937 27.4693 32.4525 25.5314Z" fill="#121313" stroke="#808181" stroke-width="0.75"/>
<path d="M16.252 21.8032C23.2072 22.6865 24.8642 15.3121 25.217 11.6934L27.7997 12.0929C27.3737 22.3702 21.7456 25.6867 19.157 25.2244C17.0193 24.8427 16.2673 22.8919 16.252 21.8032Z" fill="#121313" stroke="#808181" stroke-width="0.75"/>
</svg>
