<svg width="30" height="30" viewBox="0 0 30 30" fill="none" xmlns="http://www.w3.org/2000/svg">
<rect width="30" height="30" rx="5" fill="white"/>
<path d="M10.5 17.25V20.625H21.75V12.75H19.5V11.625H22.1543C22.4039 11.625 22.4953 11.6514 22.5867 11.7006C22.6778 11.7477 22.7525 11.8212 22.8012 11.9115C22.8486 12.0047 22.875 12.0961 22.875 12.3457V21.0293C22.875 21.2789 22.8486 21.3703 22.7994 21.4617C22.7523 21.5528 22.6788 21.6275 22.5885 21.6762C22.4953 21.7236 22.4039 21.75 22.1543 21.75H10.0957C9.84609 21.75 9.75469 21.7236 9.66328 21.6744C9.57221 21.6273 9.49747 21.5538 9.44883 21.4635C9.40137 21.3703 9.375 21.2789 9.375 21.0293V17.25H10.5Z" fill="#D3A77D"/>
<path d="M19.5 9.375H8.25V17.25H19.5V9.375ZM20.625 8.9707V17.6543C20.625 17.9039 20.5986 17.9953 20.5494 18.0867C20.5023 18.1778 20.4288 18.2525 20.3385 18.3012C20.2453 18.3486 20.1539 18.375 19.9043 18.375H7.8457C7.59609 18.375 7.50469 18.3486 7.41328 18.2994C7.32221 18.2523 7.24747 18.1788 7.19883 18.0885C7.15137 17.9953 7.125 17.9039 7.125 17.6543V8.9707C7.125 8.72109 7.15137 8.62969 7.20059 8.53828C7.24773 8.44721 7.32124 8.37247 7.41152 8.32383C7.50469 8.27637 7.59609 8.25 7.8457 8.25H19.9043C20.1539 8.25 20.2453 8.27637 20.3367 8.32559C20.4271 8.37301 20.5012 8.4465 20.5494 8.53652C20.5986 8.62969 20.6232 8.72109 20.6232 8.9707H20.625Z" fill="#D3A77D"/>
<path d="M13.875 16.125C13.1291 16.125 12.4137 15.8287 11.8863 15.3012C11.3588 14.7738 11.0625 14.0584 11.0625 13.3125C11.0625 12.5666 11.3588 11.8512 11.8863 11.3238C12.4137 10.7963 13.1291 10.5 13.875 10.5C14.6209 10.5 15.3363 10.7963 15.8637 11.3238C16.3912 11.8512 16.6875 12.5666 16.6875 13.3125C16.6875 14.0584 16.3912 14.7738 15.8637 15.3012C15.3363 15.8287 14.6209 16.125 13.875 16.125ZM13.875 15C14.3226 15 14.7518 14.8222 15.0682 14.5057C15.3847 14.1893 15.5625 13.7601 15.5625 13.3125C15.5625 12.8649 15.3847 12.4357 15.0682 12.1193C14.7518 11.8028 14.3226 11.625 13.875 11.625C13.4274 11.625 12.9982 11.8028 12.6818 12.1193C12.3653 12.4357 12.1875 12.8649 12.1875 13.3125C12.1875 13.7601 12.3653 14.1893 12.6818 14.5057C12.9982 14.8222 13.4274 15 13.875 15Z" fill="#D3A77D"/>
</svg>
