<svg width="14" height="14" viewBox="0 0 14 14" fill="none" xmlns="http://www.w3.org/2000/svg">
<path d="M7 1.16669C8.39239 1.16669 9.72774 1.71981 10.7123 2.70438C11.6969 3.68894 12.25 5.0243 12.25 6.41669C12.25 8.20985 11.2723 9.67752 10.2422 10.7304C9.72748 11.2508 9.16587 11.7226 8.5645 12.1398L8.316 12.3089L8.19933 12.3865L7.97942 12.5265L7.78342 12.6461L7.54075 12.7873C7.37604 12.8813 7.18966 12.9307 7 12.9307C6.81034 12.9307 6.62396 12.8813 6.45925 12.7873L6.21658 12.6461L5.91325 12.4594L5.80125 12.3865L5.56208 12.2273C4.91332 11.7883 4.30903 11.287 3.75783 10.7304C2.72767 9.67694 1.75 8.20985 1.75 6.41669C1.75 5.0243 2.30312 3.68894 3.28769 2.70438C4.27226 1.71981 5.60761 1.16669 7 1.16669ZM7 4.66669C6.77019 4.66669 6.54262 4.71195 6.3303 4.7999C6.11798 4.88784 5.92507 5.01675 5.76256 5.17925C5.60006 5.34175 5.47116 5.53467 5.38321 5.74699C5.29526 5.95931 5.25 6.18687 5.25 6.41669C5.25 6.6465 5.29526 6.87406 5.38321 7.08638C5.47116 7.2987 5.60006 7.49162 5.76256 7.65412C5.92507 7.81663 6.11798 7.94553 6.3303 8.03348C6.54262 8.12142 6.77019 8.16669 7 8.16669C7.46413 8.16669 7.90925 7.98231 8.23744 7.65412C8.56563 7.32594 8.75 6.88082 8.75 6.41669C8.75 5.95256 8.56563 5.50744 8.23744 5.17925C7.90925 4.85106 7.46413 4.66669 7 4.66669Z" fill="#D3A77D"/>
</svg>
