<svg width="229" height="38" viewBox="0 0 229 38" fill="none" xmlns="http://www.w3.org/2000/svg">
<g clip-path="url(#clip0_2073_379)">
<path d="M21.7312 7L0 29L15.4505 28.8736L34.2925 9.52874L34.9206 16.1035L22.9873 28.8736H37.9353L52.381 13.954H37.3075L36.5535 7H21.7312Z" fill="url(#paint0_linear_2073_379)"/>
</g>
<path d="M72.98 12V1.92H76.942C77.5813 1.92 78.118 2.05067 78.552 2.312C78.986 2.57333 79.3127 2.91167 79.532 3.327C79.7513 3.73767 79.861 4.17167 79.861 4.629C79.861 5.18433 79.7233 5.66033 79.448 6.057C79.1773 6.45367 78.811 6.72433 78.349 6.869L78.335 6.526C78.979 6.68467 79.4737 6.995 79.819 7.457C80.1643 7.91433 80.337 8.44867 80.337 9.06C80.337 9.65267 80.218 10.1683 79.98 10.607C79.7467 11.0457 79.4037 11.3887 78.951 11.636C78.503 11.8787 77.9593 12 77.32 12H72.98ZM74.464 10.607H77.096C77.4273 10.607 77.7237 10.544 77.985 10.418C78.251 10.292 78.4587 10.1123 78.608 9.879C78.762 9.641 78.839 9.35867 78.839 9.032C78.839 8.72867 78.7713 8.45567 78.636 8.213C78.5053 7.96567 78.314 7.772 78.062 7.632C77.8147 7.48733 77.523 7.415 77.187 7.415H74.464V10.607ZM74.464 6.036H76.921C77.1917 6.036 77.4343 5.98233 77.649 5.875C77.8683 5.763 78.041 5.60433 78.167 5.399C78.2977 5.189 78.363 4.937 78.363 4.643C78.363 4.251 78.2323 3.929 77.971 3.677C77.7097 3.425 77.3597 3.299 76.921 3.299H74.464V6.036ZM81.23 12V1.92H85.304C85.402 1.92 85.5233 1.92467 85.668 1.934C85.8127 1.93867 85.9503 1.95267 86.081 1.976C86.641 2.06467 87.1077 2.256 87.481 2.55C87.859 2.844 88.1413 3.215 88.328 3.663C88.5147 4.111 88.608 4.60567 88.608 5.147C88.608 5.693 88.5147 6.19 88.328 6.638C88.1413 7.086 87.859 7.457 87.481 7.751C87.1077 8.045 86.641 8.23633 86.081 8.325C85.9503 8.34367 85.8103 8.35767 85.661 8.367C85.5163 8.37633 85.3973 8.381 85.304 8.381H82.693V12H81.23ZM82.693 6.995H85.248C85.3413 6.995 85.444 6.99033 85.556 6.981C85.6727 6.97167 85.7823 6.95533 85.885 6.932C86.1837 6.862 86.424 6.73367 86.606 6.547C86.788 6.35567 86.9187 6.13633 86.998 5.889C87.0773 5.64167 87.117 5.39433 87.117 5.147C87.117 4.89967 87.0773 4.65467 86.998 4.412C86.9187 4.16467 86.788 3.94767 86.606 3.761C86.424 3.56967 86.1837 3.439 85.885 3.369C85.7823 3.341 85.6727 3.32233 85.556 3.313C85.444 3.30367 85.3413 3.299 85.248 3.299H82.693V6.995ZM89.5073 12V1.92H95.9473V3.299H90.9703V6.127H95.1073V7.506H90.9703V10.621H95.9473V12H89.5073ZM97.1284 12V1.92H98.4514L102.105 9.501L105.738 1.92H107.075V11.993H105.689V5.098L102.434 12H101.769L98.5074 5.098V12H97.1284ZM115.684 12H114.214V8.381H111.365L110.77 8.311C109.948 8.16633 109.332 7.80467 108.922 7.226C108.511 6.64267 108.306 5.94967 108.306 5.147C108.306 4.60567 108.399 4.111 108.586 3.663C108.772 3.215 109.052 2.844 109.426 2.55C109.799 2.256 110.268 2.06467 110.833 1.976C110.963 1.95267 111.101 1.93867 111.246 1.934C111.39 1.92467 111.512 1.92 111.61 1.92H115.684V12ZM109.79 12H108.117L110.301 7.52L111.778 7.898L109.79 12ZM114.214 6.995V3.299H111.666C111.572 3.299 111.467 3.30367 111.351 3.313C111.239 3.32233 111.131 3.341 111.029 3.369C110.73 3.439 110.49 3.56967 110.308 3.761C110.126 3.94767 109.993 4.16467 109.909 4.412C109.829 4.65467 109.79 4.89967 109.79 5.147C109.79 5.39433 109.829 5.64167 109.909 5.889C109.993 6.13633 110.126 6.35567 110.308 6.547C110.49 6.73367 110.73 6.862 111.029 6.932C111.131 6.95533 111.239 6.97167 111.351 6.981C111.467 6.99033 111.572 6.995 111.666 6.995H114.214ZM118.934 13.68V10.621C119.279 10.621 119.564 10.5347 119.788 10.362C120.012 10.1847 120.189 9.94433 120.32 9.641C120.455 9.333 120.558 8.983 120.628 8.591C120.703 8.199 120.759 7.786 120.796 7.352C120.852 6.764 120.899 6.19 120.936 5.63C120.978 5.06533 121.015 4.482 121.048 3.88C121.085 3.278 121.125 2.62233 121.167 1.913L127.621 1.92V10.621H128.37V13.68H126.9V12H120.397V13.68H118.934ZM121.335 10.621H126.158V3.299L122.518 3.292C122.485 3.80533 122.457 4.293 122.434 4.755C122.411 5.217 122.38 5.68367 122.343 6.155C122.31 6.62167 122.268 7.12333 122.217 7.66C122.166 8.17333 122.112 8.60967 122.056 8.969C122 9.32367 121.916 9.63167 121.804 9.893C121.697 10.1543 121.54 10.397 121.335 10.621ZM128.704 12V10.747C128.942 10.7703 129.138 10.7587 129.292 10.712C129.45 10.6607 129.583 10.5627 129.691 10.418C129.798 10.2687 129.889 10.054 129.964 9.774C130.043 9.494 130.12 9.13233 130.195 8.689C130.297 8.12433 130.384 7.54333 130.454 6.946C130.524 6.34867 130.582 5.756 130.629 5.168C130.68 4.57533 130.722 4.00367 130.755 3.453C130.787 2.90233 130.813 2.39133 130.832 1.92H137.447V12H135.984V3.299H132.204C132.18 3.67233 132.152 4.09 132.12 4.552C132.087 5.014 132.047 5.504 132.001 6.022C131.954 6.54 131.896 7.07433 131.826 7.625C131.76 8.17567 131.676 8.72867 131.574 9.284C131.49 9.76 131.387 10.1893 131.266 10.572C131.144 10.9547 130.981 11.2743 130.776 11.531C130.57 11.783 130.302 11.951 129.971 12.035C129.639 12.1237 129.217 12.112 128.704 12ZM146.059 12H144.589V8.381H141.74L141.145 8.311C140.323 8.16633 139.707 7.80467 139.297 7.226C138.886 6.64267 138.681 5.94967 138.681 5.147C138.681 4.60567 138.774 4.111 138.961 3.663C139.147 3.215 139.427 2.844 139.801 2.55C140.174 2.256 140.643 2.06467 141.208 1.976C141.338 1.95267 141.476 1.93867 141.621 1.934C141.765 1.92467 141.887 1.92 141.985 1.92H146.059V12ZM140.165 12H138.492L140.676 7.52L142.153 7.898L140.165 12ZM144.589 6.995V3.299H142.041C141.947 3.299 141.842 3.30367 141.726 3.313C141.614 3.32233 141.506 3.341 141.404 3.369C141.105 3.439 140.865 3.56967 140.683 3.761C140.501 3.94767 140.368 4.16467 140.284 4.412C140.204 4.65467 140.165 4.89967 140.165 5.147C140.165 5.39433 140.204 5.64167 140.284 5.889C140.368 6.13633 140.501 6.35567 140.683 6.547C140.865 6.73367 141.105 6.862 141.404 6.932C141.506 6.95533 141.614 6.97167 141.726 6.981C141.842 6.99033 141.947 6.995 142.041 6.995H144.589ZM149.82 12V1.92H153.894C153.992 1.92 154.113 1.92467 154.258 1.934C154.403 1.93867 154.54 1.95267 154.671 1.976C155.231 2.06467 155.698 2.256 156.071 2.55C156.449 2.844 156.731 3.215 156.918 3.663C157.105 4.111 157.198 4.60567 157.198 5.147C157.198 5.693 157.105 6.19 156.918 6.638C156.731 7.086 156.449 7.457 156.071 7.751C155.698 8.045 155.231 8.23633 154.671 8.325C154.54 8.34367 154.4 8.35767 154.251 8.367C154.106 8.37633 153.987 8.381 153.894 8.381H151.283V12H149.82ZM151.283 6.995H153.838C153.931 6.995 154.034 6.99033 154.146 6.981C154.263 6.97167 154.372 6.95533 154.475 6.932C154.774 6.862 155.014 6.73367 155.196 6.547C155.378 6.35567 155.509 6.13633 155.588 5.889C155.667 5.64167 155.707 5.39433 155.707 5.147C155.707 4.89967 155.667 4.65467 155.588 4.412C155.509 4.16467 155.378 3.94767 155.196 3.761C155.014 3.56967 154.774 3.439 154.475 3.369C154.372 3.341 154.263 3.32233 154.146 3.313C154.034 3.30367 153.931 3.299 153.838 3.299H151.283V6.995ZM166.028 12H164.544V4.503L159.581 12H158.097V1.92H159.581V9.41L164.544 1.92H166.028V12ZM171.395 12.21C170.653 12.21 169.986 12.091 169.393 11.853C168.805 11.6103 168.306 11.251 167.895 10.775C167.489 10.299 167.188 9.711 166.992 9.011L168.427 8.647C168.628 9.305 168.98 9.83467 169.484 10.236C169.993 10.6327 170.602 10.8263 171.311 10.817C171.801 10.8077 172.263 10.7143 172.697 10.537C173.131 10.355 173.488 10.075 173.768 9.697C174.006 9.389 174.176 9.06233 174.279 8.717C174.386 8.37167 174.456 8.01467 174.489 7.646H170.877V6.267H174.496C174.431 5.637 174.265 5.084 173.999 4.608C173.738 4.132 173.381 3.761 172.928 3.495C172.48 3.22433 171.941 3.09367 171.311 3.103C170.564 3.11233 169.937 3.32233 169.428 3.733C168.919 4.139 168.576 4.68967 168.399 5.385L166.922 5.175C167.174 4.07367 167.69 3.222 168.469 2.62C169.253 2.01333 170.228 1.71 171.395 1.71C172.375 1.71 173.213 1.93167 173.908 2.375C174.603 2.81367 175.135 3.42733 175.504 4.216C175.877 5 176.069 5.91467 176.078 6.96C176.087 7.94 175.908 8.82667 175.539 9.62C175.175 10.4133 174.641 11.0433 173.936 11.51C173.236 11.9767 172.389 12.21 171.395 12.21ZM176.003 12V10.747C176.241 10.7703 176.437 10.7587 176.591 10.712C176.749 10.6607 176.882 10.5627 176.99 10.418C177.097 10.2687 177.188 10.054 177.263 9.774C177.342 9.494 177.419 9.13233 177.494 8.689C177.596 8.12433 177.683 7.54333 177.753 6.946C177.823 6.34867 177.881 5.756 177.928 5.168C177.979 4.57533 178.021 4.00367 178.054 3.453C178.086 2.90233 178.112 2.39133 178.131 1.92H184.746V12H183.283V3.299H179.503C179.479 3.67233 179.451 4.09 179.419 4.552C179.386 5.014 179.346 5.504 179.3 6.022C179.253 6.54 179.195 7.07433 179.125 7.625C179.059 8.17567 178.975 8.72867 178.873 9.284C178.789 9.76 178.686 10.1893 178.565 10.572C178.443 10.9547 178.28 11.2743 178.075 11.531C177.869 11.783 177.601 11.951 177.27 12.035C176.938 12.1237 176.516 12.112 176.003 12ZM188.723 12V3.299H185.37V1.92H193.539V3.299H190.186V12H188.723ZM198.367 12.21C197.359 12.21 196.5 11.9907 195.791 11.552C195.081 11.1087 194.538 10.4927 194.16 9.704C193.786 8.91533 193.6 8.00067 193.6 6.96C193.6 5.91933 193.786 5.00467 194.16 4.216C194.538 3.42733 195.081 2.81367 195.791 2.375C196.5 1.93167 197.359 1.71 198.367 1.71C199.37 1.71 200.226 1.93167 200.936 2.375C201.65 2.81367 202.193 3.42733 202.567 4.216C202.94 5.00467 203.127 5.91933 203.127 6.96C203.127 8.00067 202.94 8.91533 202.567 9.704C202.193 10.4927 201.65 11.1087 200.936 11.552C200.226 11.9907 199.37 12.21 198.367 12.21ZM198.367 10.817C199.081 10.8263 199.673 10.67 200.145 10.348C200.621 10.0213 200.978 9.56867 201.216 8.99C201.454 8.40667 201.573 7.73 201.573 6.96C201.573 6.19 201.454 5.518 201.216 4.944C200.978 4.36533 200.621 3.915 200.145 3.593C199.673 3.271 199.081 3.10767 198.367 3.103C197.653 3.09367 197.058 3.25 196.582 3.572C196.11 3.894 195.756 4.34667 195.518 4.93C195.28 5.51333 195.158 6.19 195.154 6.96C195.149 7.73 195.266 8.40433 195.504 8.983C195.742 9.557 196.099 10.005 196.575 10.327C197.055 10.649 197.653 10.8123 198.367 10.817ZM204.023 12V1.92H208.097C208.195 1.92 208.316 1.92467 208.461 1.934C208.606 1.93867 208.743 1.95267 208.874 1.976C209.434 2.06467 209.901 2.256 210.274 2.55C210.652 2.844 210.934 3.215 211.121 3.663C211.308 4.111 211.401 4.60567 211.401 5.147C211.401 5.693 211.308 6.19 211.121 6.638C210.934 7.086 210.652 7.457 210.274 7.751C209.901 8.045 209.434 8.23633 208.874 8.325C208.743 8.34367 208.603 8.35767 208.454 8.367C208.309 8.37633 208.19 8.381 208.097 8.381H205.486V12H204.023ZM205.486 6.995H208.041C208.134 6.995 208.237 6.99033 208.349 6.981C208.466 6.97167 208.575 6.95533 208.678 6.932C208.977 6.862 209.217 6.73367 209.399 6.547C209.581 6.35567 209.712 6.13633 209.791 5.889C209.87 5.64167 209.91 5.39433 209.91 5.147C209.91 4.89967 209.87 4.65467 209.791 4.412C209.712 4.16467 209.581 3.94767 209.399 3.761C209.217 3.56967 208.977 3.439 208.678 3.369C208.575 3.341 208.466 3.32233 208.349 3.313C208.237 3.30367 208.134 3.299 208.041 3.299H205.486V6.995ZM211.04 12L214.316 1.92H216.423L219.699 12H218.18L215.163 2.802H215.541L212.559 12H211.04ZM212.741 9.725V8.353H218.005V9.725H212.741Z" fill="#363636"/>
<path d="M72.2 25L74.68 17.8H75.655L78.135 25H77.37L75.015 18.21H75.305L72.965 25H72.2ZM73.305 23.255V22.565H77.025V23.255H73.305ZM78.5379 25V19.6H82.2379V20.305H79.2729V25H78.5379ZM84.9713 25.15C84.4447 25.15 83.988 25.0333 83.6013 24.8C83.218 24.5667 82.9197 24.2383 82.7063 23.815C82.493 23.3917 82.3863 22.895 82.3863 22.325C82.3863 21.735 82.4913 21.225 82.7013 20.795C82.9113 20.365 83.2063 20.0333 83.5863 19.8C83.9697 19.5667 84.4213 19.45 84.9413 19.45C85.4747 19.45 85.9297 19.5733 86.3063 19.82C86.683 20.0633 86.968 20.4133 87.1613 20.87C87.3547 21.3267 87.443 21.8717 87.4263 22.505H86.6763V22.245C86.663 21.545 86.5113 21.0167 86.2213 20.66C85.9347 20.3033 85.5147 20.125 84.9613 20.125C84.3813 20.125 83.9363 20.3133 83.6263 20.69C83.3197 21.0667 83.1663 21.6033 83.1663 22.3C83.1663 22.98 83.3197 23.5083 83.6263 23.885C83.9363 24.2583 84.3747 24.445 84.9413 24.445C85.328 24.445 85.6647 24.3567 85.9513 24.18C86.2413 24 86.4697 23.7417 86.6363 23.405L87.3213 23.67C87.108 24.14 86.793 24.505 86.3763 24.765C85.963 25.0217 85.4947 25.15 84.9713 25.15ZM82.9063 22.505V21.89H87.0313V22.505H82.9063ZM88.0309 25V19.6H88.7659V21.945H91.8109V19.6H92.5459V25H91.8109V22.65H88.7659V25H88.0309ZM94.9091 25V20.28H92.9941V19.6H97.5591V20.28H95.6441V25H94.9091ZM100.155 25.15C99.6115 25.15 99.1515 25.0283 98.7748 24.785C98.3982 24.5417 98.1115 24.2067 97.9148 23.78C97.7215 23.35 97.6215 22.8567 97.6148 22.3C97.6215 21.7333 97.7248 21.2367 97.9248 20.81C98.1248 20.38 98.4132 20.0467 98.7898 19.81C99.1665 19.57 99.6232 19.45 100.16 19.45C100.707 19.45 101.182 19.5833 101.585 19.85C101.992 20.1167 102.27 20.4817 102.42 20.945L101.7 21.175C101.573 20.8517 101.372 20.6017 101.095 20.425C100.822 20.245 100.508 20.155 100.155 20.155C99.7582 20.155 99.4298 20.2467 99.1698 20.43C98.9098 20.61 98.7165 20.8617 98.5898 21.185C98.4632 21.5083 98.3982 21.88 98.3948 22.3C98.4015 22.9467 98.5515 23.4667 98.8448 23.86C99.1382 24.25 99.5748 24.445 100.155 24.445C100.522 24.445 100.833 24.3617 101.09 24.195C101.35 24.025 101.547 23.7783 101.68 23.455L102.42 23.675C102.22 24.155 101.927 24.5217 101.54 24.775C101.153 25.025 100.692 25.15 100.155 25.15ZM104.29 25V20.28H102.375V19.6H106.94V20.28H105.025V25H104.29ZM107.388 25V19.6H109.613C109.727 19.6 109.863 19.6067 110.023 19.62C110.187 19.6333 110.338 19.6583 110.478 19.695C110.782 19.775 111.025 19.9383 111.208 20.185C111.395 20.4317 111.488 20.7283 111.488 21.075C111.488 21.2683 111.458 21.4417 111.398 21.595C111.342 21.745 111.26 21.875 111.153 21.985C111.103 22.0417 111.048 22.0917 110.988 22.135C110.928 22.175 110.87 22.2083 110.813 22.235C110.92 22.255 111.035 22.3017 111.158 22.375C111.352 22.4883 111.498 22.6417 111.598 22.835C111.698 23.025 111.748 23.2567 111.748 23.53C111.748 23.9 111.66 24.2017 111.483 24.435C111.307 24.6683 111.07 24.8283 110.773 24.915C110.64 24.9517 110.495 24.975 110.338 24.985C110.185 24.995 110.04 25 109.903 25H107.388ZM108.128 24.375H109.868C109.938 24.375 110.027 24.37 110.133 24.36C110.24 24.3467 110.335 24.33 110.418 24.31C110.615 24.26 110.758 24.16 110.848 24.01C110.942 23.8567 110.988 23.69 110.988 23.51C110.988 23.2733 110.918 23.08 110.778 22.93C110.642 22.7767 110.458 22.6833 110.228 22.65C110.152 22.6333 110.072 22.6233 109.988 22.62C109.905 22.6167 109.83 22.615 109.763 22.615H108.128V24.375ZM108.128 21.985H109.638C109.725 21.985 109.822 21.98 109.928 21.97C110.038 21.9567 110.133 21.935 110.213 21.905C110.387 21.845 110.513 21.7417 110.593 21.595C110.677 21.4483 110.718 21.2883 110.718 21.115C110.718 20.925 110.673 20.7583 110.583 20.615C110.497 20.4717 110.365 20.3717 110.188 20.315C110.068 20.2717 109.938 20.2467 109.798 20.24C109.662 20.2333 109.575 20.23 109.538 20.23H108.128V21.985ZM114.5 25.15C113.963 25.15 113.505 25.0283 113.125 24.785C112.745 24.5417 112.453 24.205 112.25 23.775C112.047 23.345 111.945 22.8517 111.945 22.295C111.945 21.7283 112.048 21.2317 112.255 20.805C112.462 20.3783 112.755 20.0467 113.135 19.81C113.518 19.57 113.973 19.45 114.5 19.45C115.04 19.45 115.5 19.5717 115.88 19.815C116.263 20.055 116.555 20.39 116.755 20.82C116.958 21.2467 117.06 21.7383 117.06 22.295C117.06 22.8617 116.958 23.36 116.755 23.79C116.552 24.2167 116.258 24.55 115.875 24.79C115.492 25.03 115.033 25.15 114.5 25.15ZM114.5 24.445C115.1 24.445 115.547 24.2467 115.84 23.85C116.133 23.45 116.28 22.9317 116.28 22.295C116.28 21.6417 116.132 21.1217 115.835 20.735C115.542 20.3483 115.097 20.155 114.5 20.155C114.097 20.155 113.763 20.2467 113.5 20.43C113.24 20.61 113.045 20.8617 112.915 21.185C112.788 21.505 112.725 21.875 112.725 22.295C112.725 22.945 112.875 23.4667 113.175 23.86C113.475 24.25 113.917 24.445 114.5 24.445ZM119.16 25V19.6H119.895V21.945H122.94V19.6H123.675V25H122.94V22.65H119.895V25H119.16ZM126.858 25.15C126.331 25.15 125.875 25.0333 125.488 24.8C125.105 24.5667 124.806 24.2383 124.593 23.815C124.38 23.3917 124.273 22.895 124.273 22.325C124.273 21.735 124.378 21.225 124.588 20.795C124.798 20.365 125.093 20.0333 125.473 19.8C125.856 19.5667 126.308 19.45 126.828 19.45C127.361 19.45 127.816 19.5733 128.193 19.82C128.57 20.0633 128.855 20.4133 129.048 20.87C129.241 21.3267 129.33 21.8717 129.313 22.505H128.563V22.245C128.55 21.545 128.398 21.0167 128.108 20.66C127.821 20.3033 127.401 20.125 126.848 20.125C126.268 20.125 125.823 20.3133 125.513 20.69C125.206 21.0667 125.053 21.6033 125.053 22.3C125.053 22.98 125.206 23.5083 125.513 23.885C125.823 24.2583 126.261 24.445 126.828 24.445C127.215 24.445 127.551 24.3567 127.838 24.18C128.128 24 128.356 23.7417 128.523 23.405L129.208 23.67C128.995 24.14 128.68 24.505 128.263 24.765C127.85 25.0217 127.381 25.15 126.858 25.15ZM124.793 22.505V21.89H128.918V22.505H124.793ZM129.523 26.2V24.37C129.829 24.37 130.049 24.2717 130.183 24.075C130.316 23.875 130.424 23.5567 130.508 23.12C130.564 22.8367 130.611 22.5317 130.648 22.205C130.684 21.8783 130.716 21.505 130.743 21.085C130.769 20.6617 130.794 20.1667 130.818 19.6H134.388V24.37H134.908V26.2H134.198V25H130.228V26.2H129.523ZM130.768 24.37H133.658V20.23H131.498C131.488 20.4833 131.473 20.7517 131.453 21.035C131.436 21.3183 131.414 21.6017 131.388 21.885C131.364 22.1683 131.336 22.435 131.303 22.685C131.273 22.9317 131.236 23.1483 131.193 23.335C131.143 23.575 131.088 23.78 131.028 23.95C130.971 24.12 130.884 24.26 130.768 24.37ZM135.404 25V19.6H137.629C137.742 19.6 137.879 19.6067 138.039 19.62C138.202 19.6333 138.354 19.6583 138.494 19.695C138.797 19.775 139.041 19.9383 139.224 20.185C139.411 20.4317 139.504 20.7283 139.504 21.075C139.504 21.2683 139.474 21.4417 139.414 21.595C139.357 21.745 139.276 21.875 139.169 21.985C139.119 22.0417 139.064 22.0917 139.004 22.135C138.944 22.175 138.886 22.2083 138.829 22.235C138.936 22.255 139.051 22.3017 139.174 22.375C139.367 22.4883 139.514 22.6417 139.614 22.835C139.714 23.025 139.764 23.2567 139.764 23.53C139.764 23.9 139.676 24.2017 139.499 24.435C139.322 24.6683 139.086 24.8283 138.789 24.915C138.656 24.9517 138.511 24.975 138.354 24.985C138.201 24.995 138.056 25 137.919 25H135.404ZM136.144 24.375H137.884C137.954 24.375 138.042 24.37 138.149 24.36C138.256 24.3467 138.351 24.33 138.434 24.31C138.631 24.26 138.774 24.16 138.864 24.01C138.957 23.8567 139.004 23.69 139.004 23.51C139.004 23.2733 138.934 23.08 138.794 22.93C138.657 22.7767 138.474 22.6833 138.244 22.65C138.167 22.6333 138.087 22.6233 138.004 22.62C137.921 22.6167 137.846 22.615 137.779 22.615H136.144V24.375ZM136.144 21.985H137.654C137.741 21.985 137.837 21.98 137.944 21.97C138.054 21.9567 138.149 21.935 138.229 21.905C138.402 21.845 138.529 21.7417 138.609 21.595C138.692 21.4483 138.734 21.2883 138.734 21.115C138.734 20.925 138.689 20.7583 138.599 20.615C138.512 20.4717 138.381 20.3717 138.204 20.315C138.084 20.2717 137.954 20.2467 137.814 20.24C137.677 20.2333 137.591 20.23 137.554 20.23H136.144V21.985ZM144.551 19.6V25H143.836V20.795L140.876 25H140.256V19.6H140.971V23.77L143.936 19.6H144.551ZM144.854 25L147.134 22.3L144.949 19.6H145.779L147.909 22.265V19.6H148.589V22.265L150.719 19.6H151.544L149.359 22.3L151.639 25H150.784L148.589 22.335V25H147.909V22.335L145.709 25H144.854ZM156.226 19.6V25H155.511V20.795L152.551 25H151.931V19.6H152.646V23.77L155.611 19.6H156.226ZM157.125 25V19.6H157.78L159.885 24.02L161.995 19.6H162.645V25H161.935V21.17L160.12 25H159.655L157.84 21.17V25H157.125ZM165.799 25.15C165.262 25.15 164.804 25.0283 164.424 24.785C164.044 24.5417 163.752 24.205 163.549 23.775C163.345 23.345 163.244 22.8517 163.244 22.295C163.244 21.7283 163.347 21.2317 163.554 20.805C163.76 20.3783 164.054 20.0467 164.434 19.81C164.817 19.57 165.272 19.45 165.799 19.45C166.339 19.45 166.799 19.5717 167.179 19.815C167.562 20.055 167.854 20.39 168.054 20.82C168.257 21.2467 168.359 21.7383 168.359 22.295C168.359 22.8617 168.257 23.36 168.054 23.79C167.85 24.2167 167.557 24.55 167.174 24.79C166.79 25.03 166.332 25.15 165.799 25.15ZM165.799 24.445C166.399 24.445 166.845 24.2467 167.139 23.85C167.432 23.45 167.579 22.9317 167.579 22.295C167.579 21.6417 167.43 21.1217 167.134 20.735C166.84 20.3483 166.395 20.155 165.799 20.155C165.395 20.155 165.062 20.2467 164.799 20.43C164.539 20.61 164.344 20.8617 164.214 21.185C164.087 21.505 164.024 21.875 164.024 22.295C164.024 22.945 164.174 23.4667 164.474 23.86C164.774 24.25 165.215 24.445 165.799 24.445ZM171.202 25.15C170.658 25.15 170.198 25.0283 169.822 24.785C169.445 24.5417 169.158 24.2067 168.962 23.78C168.768 23.35 168.668 22.8567 168.662 22.3C168.668 21.7333 168.772 21.2367 168.972 20.81C169.172 20.38 169.46 20.0467 169.837 19.81C170.213 19.57 170.67 19.45 171.207 19.45C171.753 19.45 172.228 19.5833 172.632 19.85C173.038 20.1167 173.317 20.4817 173.467 20.945L172.747 21.175C172.62 20.8517 172.418 20.6017 172.142 20.425C171.868 20.245 171.555 20.155 171.202 20.155C170.805 20.155 170.477 20.2467 170.217 20.43C169.957 20.61 169.763 20.8617 169.637 21.185C169.51 21.5083 169.445 21.88 169.442 22.3C169.448 22.9467 169.598 23.4667 169.892 23.86C170.185 24.25 170.622 24.445 171.202 24.445C171.568 24.445 171.88 24.3617 172.137 24.195C172.397 24.025 172.593 23.7783 172.727 23.455L173.467 23.675C173.267 24.155 172.973 24.5217 172.587 24.775C172.2 25.025 171.738 25.15 171.202 25.15ZM175.337 25V20.28H173.422V19.6H177.987V20.28H176.072V25H175.337ZM182.73 19.6V25H182.015V20.795L179.055 25H178.435V19.6H179.15V23.77L182.115 19.6H182.73ZM72.695 35V29.6H74.92C75.0333 29.6 75.17 29.6067 75.33 29.62C75.4933 29.6333 75.645 29.6583 75.785 29.695C76.0883 29.775 76.3317 29.9383 76.515 30.185C76.7017 30.4317 76.795 30.7283 76.795 31.075C76.795 31.2683 76.765 31.4417 76.705 31.595C76.6483 31.745 76.5667 31.875 76.46 31.985C76.41 32.0417 76.355 32.0917 76.295 32.135C76.235 32.175 76.1767 32.2083 76.12 32.235C76.2267 32.255 76.3417 32.3017 76.465 32.375C76.6583 32.4883 76.805 32.6417 76.905 32.835C77.005 33.025 77.055 33.2567 77.055 33.53C77.055 33.9 76.9667 34.2017 76.79 34.435C76.6133 34.6683 76.3767 34.8283 76.08 34.915C75.9467 34.9517 75.8017 34.975 75.645 34.985C75.4917 34.995 75.3467 35 75.21 35H72.695ZM73.435 34.375H75.175C75.245 34.375 75.3333 34.37 75.44 34.36C75.5467 34.3467 75.6417 34.33 75.725 34.31C75.9217 34.26 76.065 34.16 76.155 34.01C76.2483 33.8567 76.295 33.69 76.295 33.51C76.295 33.2733 76.225 33.08 76.085 32.93C75.9483 32.7767 75.765 32.6833 75.535 32.65C75.4583 32.6333 75.3783 32.6233 75.295 32.62C75.2117 32.6167 75.1367 32.615 75.07 32.615H73.435V34.375ZM73.435 31.985H74.945C75.0317 31.985 75.1283 31.98 75.235 31.97C75.345 31.9567 75.44 31.935 75.52 31.905C75.6933 31.845 75.82 31.7417 75.9 31.595C75.9833 31.4483 76.025 31.2883 76.025 31.115C76.025 30.925 75.98 30.7583 75.89 30.615C75.8033 30.4717 75.6717 30.3717 75.495 30.315C75.375 30.2717 75.245 30.2467 75.105 30.24C74.9683 30.2333 74.8817 30.23 74.845 30.23H73.435V31.985ZM81.9685 35.15C81.2518 35.15 80.6468 34.9917 80.1535 34.675C79.6602 34.355 79.2868 33.9133 79.0335 33.35C78.7802 32.7867 78.6535 32.1367 78.6535 31.4C78.6535 30.6633 78.7802 30.0133 79.0335 29.45C79.2868 28.8867 79.6602 28.4467 80.1535 28.13C80.6468 27.81 81.2518 27.65 81.9685 27.65C82.8052 27.65 83.4885 27.865 84.0185 28.295C84.5485 28.7217 84.9118 29.295 85.1085 30.015L84.3585 30.21C84.2052 29.64 83.9302 29.1883 83.5335 28.855C83.1368 28.5217 82.6152 28.355 81.9685 28.355C81.4052 28.355 80.9368 28.4833 80.5635 28.74C80.1902 28.9967 79.9085 29.355 79.7185 29.815C79.5318 30.2717 79.4352 30.8 79.4285 31.4C79.4252 32 79.5168 32.5283 79.7035 32.985C79.8935 33.4417 80.1768 33.8 80.5535 34.06C80.9335 34.3167 81.4052 34.445 81.9685 34.445C82.6152 34.445 83.1368 34.2783 83.5335 33.945C83.9302 33.6083 84.2052 33.1567 84.3585 32.59L85.1085 32.785C84.9118 33.505 84.5485 34.08 84.0185 34.51C83.4885 34.9367 82.8052 35.15 81.9685 35.15ZM87.2567 35.15C86.8501 35.15 86.5084 35.0767 86.2317 34.93C85.9584 34.7833 85.7534 34.5883 85.6167 34.345C85.4801 34.1017 85.4117 33.8367 85.4117 33.55C85.4117 33.2567 85.4701 33.0067 85.5867 32.8C85.7067 32.59 85.8684 32.4183 86.0717 32.285C86.2784 32.1517 86.5167 32.05 86.7867 31.98C87.0601 31.9133 87.3617 31.855 87.6917 31.805C88.0251 31.7517 88.3501 31.7067 88.6667 31.67C88.9867 31.63 89.2667 31.5917 89.5067 31.555L89.2467 31.715C89.2567 31.1817 89.1534 30.7867 88.9367 30.53C88.7201 30.2733 88.3434 30.145 87.8067 30.145C87.4367 30.145 87.1234 30.2283 86.8667 30.395C86.6134 30.5617 86.4351 30.825 86.3317 31.185L85.6167 30.975C85.7401 30.4917 85.9884 30.1167 86.3617 29.85C86.7351 29.5833 87.2201 29.45 87.8167 29.45C88.3101 29.45 88.7284 29.5433 89.0717 29.73C89.4184 29.9133 89.6634 30.18 89.8067 30.53C89.8734 30.6867 89.9167 30.8617 89.9367 31.055C89.9567 31.2483 89.9667 31.445 89.9667 31.645V35H89.3117V33.645L89.5017 33.725C89.3184 34.1883 89.0334 34.5417 88.6467 34.785C88.2601 35.0283 87.7967 35.15 87.2567 35.15ZM87.3417 34.515C87.6851 34.515 87.9851 34.4533 88.2417 34.33C88.4984 34.2067 88.7051 34.0383 88.8617 33.825C89.0184 33.6083 89.1201 33.365 89.1667 33.095C89.2067 32.9217 89.2284 32.7317 89.2317 32.525C89.2351 32.315 89.2367 32.1583 89.2367 32.055L89.5167 32.2C89.2667 32.2333 88.9951 32.2667 88.7017 32.3C88.4117 32.3333 88.1251 32.3717 87.8417 32.415C87.5617 32.4583 87.3084 32.51 87.0817 32.57C86.9284 32.6133 86.7801 32.675 86.6367 32.755C86.4934 32.8317 86.3751 32.935 86.2817 33.065C86.1917 33.195 86.1467 33.3567 86.1467 33.55C86.1467 33.7067 86.1851 33.8583 86.2617 34.005C86.3417 34.1517 86.4684 34.2733 86.6417 34.37C86.8184 34.4667 87.0517 34.515 87.3417 34.515ZM90.7634 35V29.6H91.4984V31.945H94.5434V29.6H95.2784V35H94.5434V32.65H91.4984V35H90.7634ZM96.1716 35L96.1766 29.6H96.9166V32.2L99.3266 29.6H100.307L97.7766 32.3L100.637 35H99.5666L96.9166 32.4V35H96.1716ZM102.103 35V30.28H100.188V29.6H104.753V30.28H102.838V35H102.103ZM105.106 32.165V31.535H108.106V32.165H105.106ZM108.905 35V27.8H114.42V35H113.685V28.505H109.64V35H108.905ZM117.604 35.15C117.077 35.15 116.621 35.0333 116.234 34.8C115.851 34.5667 115.552 34.2383 115.339 33.815C115.126 33.3917 115.019 32.895 115.019 32.325C115.019 31.735 115.124 31.225 115.334 30.795C115.544 30.365 115.839 30.0333 116.219 29.8C116.602 29.5667 117.054 29.45 117.574 29.45C118.107 29.45 118.562 29.5733 118.939 29.82C119.316 30.0633 119.601 30.4133 119.794 30.87C119.987 31.3267 120.076 31.8717 120.059 32.505H119.309V32.245C119.296 31.545 119.144 31.0167 118.854 30.66C118.567 30.3033 118.147 30.125 117.594 30.125C117.014 30.125 116.569 30.3133 116.259 30.69C115.952 31.0667 115.799 31.6033 115.799 32.3C115.799 32.98 115.952 33.5083 116.259 33.885C116.569 34.2583 117.007 34.445 117.574 34.445C117.961 34.445 118.297 34.3567 118.584 34.18C118.874 34 119.102 33.7417 119.269 33.405L119.954 33.67C119.741 34.14 119.426 34.505 119.009 34.765C118.596 35.0217 118.127 35.15 117.604 35.15ZM115.539 32.505V31.89H119.664V32.505H115.539ZM122.065 35V30.28H120.15V29.6H124.715V30.28H122.8V35H122.065ZM127.454 35.15C126.927 35.15 126.47 35.0333 126.084 34.8C125.7 34.5667 125.402 34.2383 125.189 33.815C124.975 33.3917 124.869 32.895 124.869 32.325C124.869 31.735 124.974 31.225 125.184 30.795C125.394 30.365 125.689 30.0333 126.069 29.8C126.452 29.5667 126.904 29.45 127.424 29.45C127.957 29.45 128.412 29.5733 128.789 29.82C129.165 30.0633 129.45 30.4133 129.644 30.87C129.837 31.3267 129.925 31.8717 129.909 32.505H129.159V32.245C129.145 31.545 128.994 31.0167 128.704 30.66C128.417 30.3033 127.997 30.125 127.444 30.125C126.864 30.125 126.419 30.3133 126.109 30.69C125.802 31.0667 125.649 31.6033 125.649 32.3C125.649 32.98 125.802 33.5083 126.109 33.885C126.419 34.2583 126.857 34.445 127.424 34.445C127.81 34.445 128.147 34.3567 128.434 34.18C128.724 34 128.952 33.7417 129.119 33.405L129.804 33.67C129.59 34.14 129.275 34.505 128.859 34.765C128.445 35.0217 127.977 35.15 127.454 35.15ZM125.389 32.505V31.89H129.514V32.505H125.389ZM132.943 35.15C132.447 35.15 132.027 35.025 131.683 34.775C131.34 34.5217 131.08 34.18 130.903 33.75C130.727 33.3167 130.638 32.8317 130.638 32.295C130.638 31.7483 130.727 31.2617 130.903 30.835C131.083 30.405 131.347 30.0667 131.693 29.82C132.04 29.5733 132.467 29.45 132.973 29.45C133.467 29.45 133.89 29.575 134.243 29.825C134.597 30.075 134.867 30.415 135.053 30.845C135.243 31.275 135.338 31.7583 135.338 32.295C135.338 32.835 135.243 33.32 135.053 33.75C134.863 34.18 134.59 34.5217 134.233 34.775C133.877 35.025 133.447 35.15 132.943 35.15ZM130.513 37.4V29.6H131.173V33.665H131.253V37.4H130.513ZM132.868 34.465C133.245 34.465 133.558 34.37 133.808 34.18C134.058 33.99 134.245 33.7317 134.368 33.405C134.495 33.075 134.558 32.705 134.558 32.295C134.558 31.8883 134.497 31.5217 134.373 31.195C134.25 30.8683 134.062 30.61 133.808 30.42C133.558 30.23 133.24 30.135 132.853 30.135C132.477 30.135 132.163 30.2267 131.913 30.41C131.667 30.5933 131.482 30.8483 131.358 31.175C131.235 31.4983 131.173 31.8717 131.173 32.295C131.173 32.7117 131.235 33.085 131.358 33.415C131.482 33.7417 131.668 33.9983 131.918 34.185C132.168 34.3717 132.485 34.465 132.868 34.465ZM138.101 35.155C137.598 35.1517 137.166 35.0417 136.806 34.825C136.446 34.6083 136.166 34.285 135.966 33.855C135.77 33.425 135.663 32.8883 135.646 32.245C135.636 31.9617 135.643 31.6533 135.666 31.32C135.69 30.9833 135.726 30.6633 135.776 30.36C135.826 30.0567 135.886 29.81 135.956 29.62C136.043 29.3733 136.166 29.1433 136.326 28.93C136.49 28.7133 136.678 28.5367 136.891 28.4C137.098 28.26 137.331 28.1517 137.591 28.075C137.855 27.995 138.128 27.9333 138.411 27.89C138.698 27.8467 138.981 27.8083 139.261 27.775C139.545 27.7417 139.806 27.7 140.046 27.65L140.126 28.315C139.943 28.3517 139.726 28.385 139.476 28.415C139.226 28.445 138.965 28.4817 138.691 28.525C138.418 28.565 138.156 28.62 137.906 28.69C137.656 28.76 137.443 28.8517 137.266 28.965C136.996 29.1283 136.788 29.375 136.641 29.705C136.498 30.035 136.41 30.4133 136.376 30.84C136.583 30.5167 136.856 30.2733 137.196 30.11C137.54 29.9467 137.911 29.865 138.311 29.865C138.798 29.865 139.216 29.9767 139.566 30.2C139.92 30.4233 140.191 30.7333 140.381 31.13C140.571 31.5267 140.666 31.9817 140.666 32.495C140.666 33.0317 140.561 33.5 140.351 33.9C140.145 34.3 139.85 34.61 139.466 34.83C139.083 35.0467 138.628 35.155 138.101 35.155ZM138.156 34.45C138.723 34.45 139.153 34.2733 139.446 33.92C139.743 33.5667 139.891 33.0967 139.891 32.51C139.891 31.91 139.738 31.4367 139.431 31.09C139.128 30.7433 138.7 30.57 138.146 30.57C137.593 30.57 137.168 30.7433 136.871 31.09C136.575 31.4367 136.426 31.91 136.426 32.51C136.426 33.11 136.575 33.5833 136.871 33.93C137.168 34.2767 137.596 34.45 138.156 34.45ZM141.841 37.4L142.886 34.565L142.901 35.405L140.536 29.6H141.316L143.256 34.455H142.936L144.726 29.6H145.476L142.576 37.4H141.841ZM148.27 35.15C147.773 35.15 147.353 35.025 147.01 34.775C146.666 34.5217 146.406 34.18 146.23 33.75C146.053 33.3167 145.965 32.8317 145.965 32.295C145.965 31.7483 146.053 31.2617 146.23 30.835C146.41 30.405 146.673 30.0667 147.02 29.82C147.366 29.5733 147.793 29.45 148.3 29.45C148.793 29.45 149.216 29.575 149.57 29.825C149.923 30.075 150.193 30.415 150.38 30.845C150.57 31.275 150.665 31.7583 150.665 32.295C150.665 32.835 150.57 33.32 150.38 33.75C150.19 34.18 149.916 34.5217 149.56 34.775C149.203 35.025 148.773 35.15 148.27 35.15ZM145.84 37.4V29.6H146.5V33.665H146.58V37.4H145.84ZM148.195 34.465C148.571 34.465 148.885 34.37 149.135 34.18C149.385 33.99 149.571 33.7317 149.695 33.405C149.821 33.075 149.885 32.705 149.885 32.295C149.885 31.8883 149.823 31.5217 149.7 31.195C149.576 30.8683 149.388 30.61 149.135 30.42C148.885 30.23 148.566 30.135 148.18 30.135C147.803 30.135 147.49 30.2267 147.24 30.41C146.993 30.5933 146.808 30.8483 146.685 31.175C146.561 31.4983 146.5 31.8717 146.5 32.295C146.5 32.7117 146.561 33.085 146.685 33.415C146.808 33.7417 146.995 33.9983 147.245 34.185C147.495 34.3717 147.811 34.465 148.195 34.465ZM151.263 35V29.6H154.963V30.305H151.998V35H151.263ZM157.696 35.15C157.169 35.15 156.713 35.0333 156.326 34.8C155.943 34.5667 155.644 34.2383 155.431 33.815C155.218 33.3917 155.111 32.895 155.111 32.325C155.111 31.735 155.216 31.225 155.426 30.795C155.636 30.365 155.931 30.0333 156.311 29.8C156.694 29.5667 157.146 29.45 157.666 29.45C158.199 29.45 158.654 29.5733 159.031 29.82C159.408 30.0633 159.693 30.4133 159.886 30.87C160.079 31.3267 160.168 31.8717 160.151 32.505H159.401V32.245C159.388 31.545 159.236 31.0167 158.946 30.66C158.659 30.3033 158.239 30.125 157.686 30.125C157.106 30.125 156.661 30.3133 156.351 30.69C156.044 31.0667 155.891 31.6033 155.891 32.3C155.891 32.98 156.044 33.5083 156.351 33.885C156.661 34.2583 157.099 34.445 157.666 34.445C158.053 34.445 158.389 34.3567 158.676 34.18C158.966 34 159.194 33.7417 159.361 33.405L160.046 33.67C159.833 34.14 159.518 34.505 159.101 34.765C158.688 35.0217 158.219 35.15 157.696 35.15ZM155.631 32.505V31.89H159.756V32.505H155.631ZM166.553 29.6V35H165.838V30.795L162.878 35H162.258V29.6H162.973V33.77L165.938 29.6H166.553ZM168.458 35V34.345C168.641 34.3617 168.793 34.355 168.913 34.325C169.033 34.2917 169.129 34.2183 169.203 34.105C169.279 33.9917 169.346 33.8233 169.403 33.6C169.459 33.3733 169.516 33.0783 169.573 32.715C169.636 32.3217 169.689 31.93 169.733 31.54C169.779 31.15 169.819 30.755 169.853 30.355C169.889 29.9517 169.919 29.5383 169.943 29.115C169.966 28.6917 169.988 28.2533 170.008 27.8H174.553V35H173.818V28.505H170.718C170.694 28.8483 170.671 29.2 170.648 29.56C170.628 29.92 170.601 30.2883 170.568 30.665C170.538 31.0417 170.499 31.43 170.453 31.83C170.409 32.2267 170.354 32.6367 170.288 33.06C170.234 33.38 170.171 33.6767 170.098 33.95C170.028 34.2233 169.928 34.4533 169.798 34.64C169.671 34.8267 169.499 34.955 169.283 35.025C169.069 35.095 168.794 35.0867 168.458 35ZM177.735 35.15C177.208 35.15 176.752 35.0333 176.365 34.8C175.982 34.5667 175.683 34.2383 175.47 33.815C175.257 33.3917 175.15 32.895 175.15 32.325C175.15 31.735 175.255 31.225 175.465 30.795C175.675 30.365 175.97 30.0333 176.35 29.8C176.733 29.5667 177.185 29.45 177.705 29.45C178.238 29.45 178.693 29.5733 179.07 29.82C179.447 30.0633 179.732 30.4133 179.925 30.87C180.118 31.3267 180.207 31.8717 180.19 32.505H179.44V32.245C179.427 31.545 179.275 31.0167 178.985 30.66C178.698 30.3033 178.278 30.125 177.725 30.125C177.145 30.125 176.7 30.3133 176.39 30.69C176.083 31.0667 175.93 31.6033 175.93 32.3C175.93 32.98 176.083 33.5083 176.39 33.885C176.7 34.2583 177.138 34.445 177.705 34.445C178.092 34.445 178.428 34.3567 178.715 34.18C179.005 34 179.233 33.7417 179.4 33.405L180.085 33.67C179.872 34.14 179.557 34.505 179.14 34.765C178.727 35.0217 178.258 35.15 177.735 35.15ZM175.67 32.505V31.89H179.795V32.505H175.67ZM180.795 35V29.6H181.53V31.945H184.575V29.6H185.31V35H184.575V32.65H181.53V35H180.795ZM188.463 35.15C187.926 35.15 187.468 35.0283 187.088 34.785C186.708 34.5417 186.416 34.205 186.213 33.775C186.009 33.345 185.908 32.8517 185.908 32.295C185.908 31.7283 186.011 31.2317 186.218 30.805C186.424 30.3783 186.718 30.0467 187.098 29.81C187.481 29.57 187.936 29.45 188.463 29.45C189.003 29.45 189.463 29.5717 189.843 29.815C190.226 30.055 190.518 30.39 190.718 30.82C190.921 31.2467 191.023 31.7383 191.023 32.295C191.023 32.8617 190.921 33.36 190.718 33.79C190.514 34.2167 190.221 34.55 189.838 34.79C189.454 35.03 188.996 35.15 188.463 35.15ZM188.463 34.445C189.063 34.445 189.509 34.2467 189.803 33.85C190.096 33.45 190.243 32.9317 190.243 32.295C190.243 31.6417 190.094 31.1217 189.798 30.735C189.504 30.3483 189.059 30.155 188.463 30.155C188.059 30.155 187.726 30.2467 187.463 30.43C187.203 30.61 187.008 30.8617 186.878 31.185C186.751 31.505 186.688 31.875 186.688 32.295C186.688 32.945 186.838 33.4667 187.138 33.86C187.438 34.25 187.879 34.445 188.463 34.445ZM193.791 35.155C193.287 35.1517 192.856 35.0417 192.496 34.825C192.136 34.6083 191.856 34.285 191.656 33.855C191.459 33.425 191.352 32.8883 191.336 32.245C191.326 31.9617 191.332 31.6533 191.356 31.32C191.379 30.9833 191.416 30.6633 191.466 30.36C191.516 30.0567 191.576 29.81 191.646 29.62C191.732 29.3733 191.856 29.1433 192.016 28.93C192.179 28.7133 192.367 28.5367 192.581 28.4C192.787 28.26 193.021 28.1517 193.281 28.075C193.544 27.995 193.817 27.9333 194.101 27.89C194.387 27.8467 194.671 27.8083 194.951 27.775C195.234 27.7417 195.496 27.7 195.736 27.65L195.816 28.315C195.632 28.3517 195.416 28.385 195.166 28.415C194.916 28.445 194.654 28.4817 194.381 28.525C194.107 28.565 193.846 28.62 193.596 28.69C193.346 28.76 193.132 28.8517 192.956 28.965C192.686 29.1283 192.477 29.375 192.331 29.705C192.187 30.035 192.099 30.4133 192.066 30.84C192.272 30.5167 192.546 30.2733 192.886 30.11C193.229 29.9467 193.601 29.865 194.001 29.865C194.487 29.865 194.906 29.9767 195.256 30.2C195.609 30.4233 195.881 30.7333 196.071 31.13C196.261 31.5267 196.356 31.9817 196.356 32.495C196.356 33.0317 196.251 33.5 196.041 33.9C195.834 34.3 195.539 34.61 195.156 34.83C194.772 35.0467 194.317 35.155 193.791 35.155ZM193.846 34.45C194.412 34.45 194.842 34.2733 195.136 33.92C195.432 33.5667 195.581 33.0967 195.581 32.51C195.581 31.91 195.427 31.4367 195.121 31.09C194.817 30.7433 194.389 30.57 193.836 30.57C193.282 30.57 192.857 30.7433 192.561 31.09C192.264 31.4367 192.116 31.91 192.116 32.51C192.116 33.11 192.264 33.5833 192.561 33.93C192.857 34.2767 193.286 34.45 193.846 34.45ZM196.456 35V34.355C196.656 34.3917 196.808 34.3833 196.911 34.33C197.018 34.2733 197.096 34.18 197.146 34.05C197.196 33.9167 197.238 33.7517 197.271 33.555C197.324 33.2283 197.373 32.8683 197.416 32.475C197.459 32.0817 197.498 31.6483 197.531 31.175C197.568 30.6983 197.604 30.1733 197.641 29.6H201.311V35H200.581V30.305H198.321C198.298 30.6583 198.271 31.01 198.241 31.36C198.211 31.71 198.179 32.0467 198.146 32.37C198.116 32.69 198.083 32.985 198.046 33.255C198.009 33.525 197.971 33.7583 197.931 33.955C197.871 34.2517 197.791 34.4883 197.691 34.665C197.594 34.8417 197.449 34.9583 197.256 35.015C197.063 35.0717 196.796 35.0667 196.456 35ZM203.753 35.15C203.346 35.15 203.004 35.0767 202.728 34.93C202.454 34.7833 202.249 34.5883 202.113 34.345C201.976 34.1017 201.908 33.8367 201.908 33.55C201.908 33.2567 201.966 33.0067 202.083 32.8C202.203 32.59 202.364 32.4183 202.568 32.285C202.774 32.1517 203.013 32.05 203.283 31.98C203.556 31.9133 203.858 31.855 204.188 31.805C204.521 31.7517 204.846 31.7067 205.163 31.67C205.483 31.63 205.763 31.5917 206.003 31.555L205.743 31.715C205.753 31.1817 205.649 30.7867 205.433 30.53C205.216 30.2733 204.839 30.145 204.303 30.145C203.933 30.145 203.619 30.2283 203.363 30.395C203.109 30.5617 202.931 30.825 202.828 31.185L202.113 30.975C202.236 30.4917 202.484 30.1167 202.858 29.85C203.231 29.5833 203.716 29.45 204.313 29.45C204.806 29.45 205.224 29.5433 205.568 29.73C205.914 29.9133 206.159 30.18 206.303 30.53C206.369 30.6867 206.413 30.8617 206.433 31.055C206.453 31.2483 206.463 31.445 206.463 31.645V35H205.808V33.645L205.998 33.725C205.814 34.1883 205.529 34.5417 205.143 34.785C204.756 35.0283 204.293 35.15 203.753 35.15ZM203.838 34.515C204.181 34.515 204.481 34.4533 204.738 34.33C204.994 34.2067 205.201 34.0383 205.358 33.825C205.514 33.6083 205.616 33.365 205.663 33.095C205.703 32.9217 205.724 32.7317 205.728 32.525C205.731 32.315 205.733 32.1583 205.733 32.055L206.013 32.2C205.763 32.2333 205.491 32.2667 205.198 32.3C204.908 32.3333 204.621 32.3717 204.338 32.415C204.058 32.4583 203.804 32.51 203.578 32.57C203.424 32.6133 203.276 32.675 203.133 32.755C202.989 32.8317 202.871 32.935 202.778 33.065C202.688 33.195 202.643 33.3567 202.643 33.55C202.643 33.7067 202.681 33.8583 202.758 34.005C202.838 34.1517 202.964 34.2733 203.138 34.37C203.314 34.4667 203.548 34.515 203.838 34.515ZM209.504 35.15C208.961 35.15 208.501 35.0283 208.124 34.785C207.748 34.5417 207.461 34.2067 207.264 33.78C207.071 33.35 206.971 32.8567 206.964 32.3C206.971 31.7333 207.074 31.2367 207.274 30.81C207.474 30.38 207.763 30.0467 208.139 29.81C208.516 29.57 208.973 29.45 209.509 29.45C210.056 29.45 210.531 29.5833 210.934 29.85C211.341 30.1167 211.619 30.4817 211.769 30.945L211.049 31.175C210.923 30.8517 210.721 30.6017 210.444 30.425C210.171 30.245 209.858 30.155 209.504 30.155C209.108 30.155 208.779 30.2467 208.519 30.43C208.259 30.61 208.066 30.8617 207.939 31.185C207.813 31.5083 207.748 31.88 207.744 32.3C207.751 32.9467 207.901 33.4667 208.194 33.86C208.488 34.25 208.924 34.445 209.504 34.445C209.871 34.445 210.183 34.3617 210.439 34.195C210.699 34.025 210.896 33.7783 211.029 33.455L211.769 33.675C211.569 34.155 211.276 34.5217 210.889 34.775C210.503 35.025 210.041 35.15 209.504 35.15ZM213.64 35V30.28H211.725V29.6H216.29V30.28H214.375V35H213.64ZM221.033 29.6V35H220.318V30.795L217.358 35H216.738V29.6H217.453V33.77L220.418 29.6H221.033Z" fill="#363636" fill-opacity="0.6"/>
<defs>
<linearGradient id="paint0_linear_2073_379" x1="0" y1="7" x2="51.6546" y2="30.5905" gradientUnits="userSpaceOnUse">
<stop stop-color="#997A5D"/>
<stop offset="1" stop-color="#D3A77D"/>
</linearGradient>
<clipPath id="clip0_2073_379">
<rect width="52.381" height="22" fill="white" transform="translate(0 7)"/>
</clipPath>
</defs>
</svg>
