<svg width="20" height="20" viewBox="0 0 20 20" fill="none" xmlns="http://www.w3.org/2000/svg">
<path fill-rule="evenodd" clip-rule="evenodd" d="M8.54125 0.0267748C4.99994 0.586478 2.03645 2.90484 0.731014 6.13675C0.228901 7.37983 0.0675691 8.22688 0.0150401 9.89657C-0.0421448 11.7116 0.0348777 12.259 0.760164 15.1924C1.00783 16.1944 1.26987 17.5568 1.34244 18.22C1.46541 19.3443 1.49375 19.4424 1.76338 19.6743C2.02633 19.9005 2.11782 19.9187 2.77783 19.8763C3.60281 19.8234 4.48072 19.4636 5.27685 18.8524L5.75731 18.4836L6.41407 18.8856C7.28976 19.4215 7.69157 19.5831 8.57546 19.7546C10.4742 20.123 12.5976 19.7905 14.4961 18.8273C17.0924 17.5102 18.9533 15.2246 19.6937 12.4435C20.0353 11.1607 20.0819 9.06451 19.796 7.84126C18.9231 4.10542 16.3128 1.30205 12.7348 0.257336C12.1363 0.0826439 11.6616 0.0316329 10.4137 0.00825294C9.55084 -0.00794099 8.70825 0.00045962 8.54125 0.0267748ZM11.0333 4.9637C13.403 5.46601 15.0796 7.50908 15.0796 9.89455C15.0796 11.3795 14.599 12.4688 13.4682 13.5475C12.4127 14.5543 11.2467 14.9866 9.76298 14.9218C8.9544 14.8864 8.73973 14.8347 8.05928 14.5115L7.28065 14.1418L6.8505 14.5013C6.36691 14.9053 6.03068 15.0612 5.81874 14.9799C5.61824 14.9029 5.27989 14.0739 5.10004 13.2187C4.91016 12.3163 4.9045 9.96388 5.09002 9.09933C5.30671 8.08953 5.87552 7.01446 6.5828 6.27794C7.77113 5.04032 9.28536 4.59326 11.0333 4.9637Z" fill="#D3A77D"/>
</svg>
