<svg width="20" height="20" viewBox="0 0 20 20" fill="none" xmlns="http://www.w3.org/2000/svg">
<circle cx="10" cy="10" r="10" fill="white"/>
<path d="M14.0902 9.31818C14.271 9.31818 14.4445 9.39001 14.5723 9.51788C14.7002 9.64574 14.772 9.81917 14.772 9.99999C14.772 10.1808 14.7002 10.3542 14.5723 10.4821C14.4445 10.61 14.271 10.6818 14.0902 10.6818H10.6811H5.90838C5.72755 10.6818 5.55413 10.61 5.42626 10.4821C5.2984 10.3542 5.22656 10.1808 5.22656 9.99999C5.22656 9.81917 5.2984 9.64574 5.42626 9.51788C5.55413 9.39001 5.72755 9.31818 5.90838 9.31818H9.31747H10.6811H14.0902Z" fill="#D3A77D"/>
</svg>
