<svg width="24" height="24" viewBox="0 0 24 24" fill="none" xmlns="http://www.w3.org/2000/svg">
<path d="M15.9853 14.3346L15.5303 14.7876C15.5303 14.7876 14.4473 15.8636 11.4923 12.9256C8.53732 9.98755 9.62032 8.91155 9.62032 8.91155L9.90632 8.62555C10.6133 7.92355 10.6803 6.79555 10.0633 5.97155L8.80332 4.28855C8.03932 3.26855 6.56432 3.13355 5.68932 4.00355L4.11932 5.56355C3.68632 5.99555 3.39632 6.55355 3.43132 7.17355C3.52132 8.76055 4.23932 12.1736 8.24332 16.1556C12.4903 20.3776 16.4753 20.5456 18.1043 20.3936C18.6203 20.3456 19.0683 20.0836 19.4293 19.7236L20.8493 18.3116C21.8093 17.3586 21.5393 15.7236 20.3113 15.0566L18.4013 14.0176C17.5953 13.5806 16.6153 13.7086 15.9853 14.3346Z" fill="white"/>
</svg>
