<svg width="17" height="17" viewBox="0 0 17 17" fill="none" xmlns="http://www.w3.org/2000/svg">
<path d="M8.18093 3.40912C8.36176 3.40912 8.53518 3.48095 8.66305 3.60882C8.79091 3.73668 8.86275 3.91011 8.86275 4.09094V7.50003H12.2718C12.4527 7.50003 12.6261 7.57186 12.754 7.69973C12.8818 7.82759 12.9537 8.00102 12.9537 8.18185C12.9537 8.36268 12.8818 8.5361 12.754 8.66396C12.6261 8.79183 12.4527 8.86366 12.2718 8.86366H8.86275V12.2728C8.86275 12.4536 8.79091 12.627 8.66305 12.7549C8.53518 12.8827 8.36176 12.9546 8.18093 12.9546C8.0001 12.9546 7.82668 12.8827 7.69881 12.7549C7.57095 12.627 7.49911 12.4536 7.49911 12.2728V8.86366H4.09002C3.90919 8.86366 3.73577 8.79183 3.6079 8.66396C3.48004 8.5361 3.4082 8.36268 3.4082 8.18185C3.4082 8.00102 3.48004 7.82759 3.6079 7.69973C3.73577 7.57186 3.90919 7.50003 4.09002 7.50003H7.49911V4.09094C7.49911 3.91011 7.57095 3.73668 7.69881 3.60882C7.82668 3.48095 8.0001 3.40912 8.18093 3.40912Z" fill="#D3A77D"/>
</svg>
