<svg width="199" height="34" viewBox="0 0 199 34" fill="none" xmlns="http://www.w3.org/2000/svg">
<g clip-path="url(#clip0_532_756)">
<path d="M18.8843 6.10129L0 25.2768L13.4264 25.1665L29.8001 8.30537L30.3459 14.036L19.9759 25.1665H32.9656L45.5188 12.1625H32.42L31.7649 6.10129H18.8843Z" fill="#FEF9F3"/>
</g>
<path d="M63.4192 11V2.24052H66.8622C67.4178 2.24052 67.8841 2.35407 68.2613 2.58117C68.6384 2.80827 68.9223 3.10228 69.1129 3.4632C69.3035 3.82007 69.3988 4.19721 69.3988 4.59463C69.3988 5.07721 69.2792 5.49086 69.0399 5.83556C68.8047 6.18026 68.4864 6.41547 68.0849 6.54118L68.0727 6.24312C68.6323 6.381 69.0622 6.65068 69.3623 7.05215C69.6624 7.44957 69.8124 7.91391 69.8124 8.44515C69.8124 8.96018 69.709 9.40829 69.5022 9.78949C69.2994 10.1707 69.0014 10.4688 68.608 10.6837C68.2187 10.8946 67.7463 11 67.1907 11H63.4192ZM64.7088 9.78949H66.996C67.284 9.78949 67.5415 9.73474 67.7686 9.62525C67.9997 9.51576 68.1802 9.35963 68.31 9.15686C68.4438 8.95004 68.5107 8.70469 68.5107 8.42082C68.5107 8.15723 68.4519 7.91999 68.3343 7.70911C68.2207 7.49418 68.0545 7.32589 67.8355 7.20423C67.6205 7.07851 67.3671 7.01565 67.0751 7.01565H64.7088V9.78949ZM64.7088 5.81731H66.844C67.0792 5.81731 67.29 5.77067 67.4766 5.6774C67.6672 5.58007 67.8172 5.44219 67.9267 5.26376C68.0403 5.08127 68.097 4.86228 68.097 4.6068C68.097 4.26615 67.9835 3.98634 67.7564 3.76735C67.5293 3.54836 67.2252 3.43887 66.844 3.43887H64.7088V5.81731ZM70.5885 11V2.24052H74.1287C74.2139 2.24052 74.3193 2.24458 74.4451 2.25269C74.5708 2.25674 74.6904 2.26891 74.804 2.28919C75.2906 2.36624 75.6961 2.53251 76.0205 2.78799C76.349 3.04348 76.5944 3.36587 76.7566 3.75518C76.9188 4.14449 76.9999 4.57436 76.9999 5.04477C76.9999 5.51924 76.9188 5.95113 76.7566 6.34045C76.5944 6.72976 76.349 7.05215 76.0205 7.30764C75.6961 7.56312 75.2906 7.72939 74.804 7.80644C74.6904 7.82266 74.5687 7.83483 74.439 7.84294C74.3133 7.85105 74.2099 7.8551 74.1287 7.8551H71.8598V11H70.5885ZM71.8598 6.65068H74.0801C74.1612 6.65068 74.2504 6.64662 74.3477 6.63851C74.4491 6.6304 74.5444 6.61621 74.6336 6.59593C74.8932 6.5351 75.102 6.42358 75.2602 6.26137C75.4183 6.0951 75.5319 5.9045 75.6008 5.68957C75.6698 5.47464 75.7042 5.2597 75.7042 5.04477C75.7042 4.82984 75.6698 4.61694 75.6008 4.40606C75.5319 4.19113 75.4183 4.00256 75.2602 3.84034C75.102 3.67408 74.8932 3.56053 74.6336 3.4997C74.5444 3.47537 74.4491 3.45914 74.3477 3.45103C74.2504 3.44292 74.1612 3.43887 74.0801 3.43887H71.8598V6.65068ZM77.7814 11V2.24052H83.3778V3.43887H79.0528V5.89639H82.6478V7.09473H79.0528V9.80165H83.3778V11H77.7814ZM84.4041 11V2.24052H85.5538L88.7291 8.82838L91.8862 2.24052H93.048V10.9939H91.8436V5.00219L89.015 11H88.4371L85.6025 5.00219V11H84.4041ZM100.529 11H99.2511V7.8551H96.7753L96.2583 7.79427C95.5445 7.66856 95.0092 7.35427 94.6524 6.85141C94.2955 6.3445 94.1171 5.74229 94.1171 5.04477C94.1171 4.57436 94.1982 4.14449 94.3604 3.75518C94.5226 3.36587 94.7659 3.04348 95.0903 2.78799C95.4148 2.53251 95.8223 2.36624 96.313 2.28919C96.4266 2.26891 96.5462 2.25674 96.6719 2.25269C96.7976 2.24458 96.9031 2.24052 96.9882 2.24052H100.529V11ZM95.4067 11H93.9528L95.8507 7.1069L97.1342 7.43538L95.4067 11ZM99.2511 6.65068V3.43887H97.0369C96.9558 3.43887 96.8645 3.44292 96.7632 3.45103C96.6658 3.45914 96.5726 3.47537 96.4833 3.4997C96.2238 3.56053 96.015 3.67408 95.8568 3.84034C95.6986 4.00256 95.5831 4.19113 95.5101 4.40606C95.4411 4.61694 95.4067 4.82984 95.4067 5.04477C95.4067 5.2597 95.4411 5.47464 95.5101 5.68957C95.5831 5.9045 95.6986 6.0951 95.8568 6.26137C96.015 6.42358 96.2238 6.5351 96.4833 6.59593C96.5726 6.61621 96.6658 6.6304 96.7632 6.63851C96.8645 6.64662 96.9558 6.65068 97.0369 6.65068H99.2511ZM103.353 12.4599V9.80165C103.653 9.80165 103.9 9.72663 104.095 9.57659C104.29 9.42248 104.444 9.21363 104.557 8.95004C104.675 8.68239 104.764 8.37824 104.825 8.03759C104.89 7.69695 104.939 7.33805 104.971 6.96091C105.02 6.44994 105.06 5.95114 105.093 5.4645C105.129 4.9738 105.162 4.46689 105.19 3.94375C105.222 3.42062 105.257 2.85085 105.293 2.23444L110.902 2.24052V9.80165H111.553V12.4599H110.275V11H104.624V12.4599H103.353ZM105.439 9.80165H109.631V3.43887L106.467 3.43279C106.439 3.87887 106.415 4.30265 106.394 4.70413C106.374 5.1056 106.348 5.51113 106.315 5.92072C106.287 6.32625 106.25 6.7622 106.206 7.22856C106.161 7.67464 106.115 8.05381 106.066 8.36607C106.017 8.67428 105.944 8.94193 105.847 9.16903C105.754 9.39612 105.618 9.607 105.439 9.80165ZM111.843 11V9.91115C112.05 9.93142 112.22 9.92129 112.354 9.88073C112.492 9.83613 112.607 9.75096 112.701 9.62525C112.794 9.49548 112.873 9.30893 112.938 9.06562C113.007 8.8223 113.074 8.50801 113.139 8.12276C113.228 7.63206 113.303 7.12718 113.364 6.6081C113.425 6.08902 113.475 5.57399 113.516 5.06302C113.56 4.548 113.597 4.05122 113.625 3.57269C113.654 3.09417 113.676 2.65011 113.692 2.24052H119.441V11H118.169V3.43887H114.884C114.864 3.76329 114.84 4.12624 114.811 4.52772C114.783 4.9292 114.749 5.355 114.708 5.80514C114.668 6.25528 114.617 6.71962 114.556 7.19814C114.499 7.67667 114.426 8.15723 114.337 8.63981C114.264 9.05345 114.175 9.42654 114.069 9.75907C113.964 10.0916 113.822 10.3694 113.644 10.5924C113.465 10.8114 113.232 10.9574 112.944 11.0304C112.656 11.1075 112.289 11.0973 111.843 11ZM126.924 11H125.647V7.8551H123.171L122.654 7.79427C121.94 7.66856 121.405 7.35427 121.048 6.85141C120.691 6.3445 120.513 5.74229 120.513 5.04477C120.513 4.57436 120.594 4.14449 120.756 3.75518C120.918 3.36587 121.162 3.04348 121.486 2.78799C121.811 2.53251 122.218 2.36624 122.709 2.28919C122.822 2.26891 122.942 2.25674 123.068 2.25269C123.193 2.24458 123.299 2.24052 123.384 2.24052H126.924V11ZM121.802 11H120.349L122.246 7.1069L123.53 7.43538L121.802 11ZM125.647 6.65068V3.43887H123.433C123.352 3.43887 123.26 3.44292 123.159 3.45103C123.062 3.45914 122.968 3.47537 122.879 3.4997C122.62 3.56053 122.411 3.67408 122.253 3.84034C122.094 4.00256 121.979 4.19113 121.906 4.40606C121.837 4.61694 121.802 4.82984 121.802 5.04477C121.802 5.2597 121.837 5.47464 121.906 5.68957C121.979 5.9045 122.094 6.0951 122.253 6.26137C122.411 6.42358 122.62 6.5351 122.879 6.59593C122.968 6.61621 123.062 6.6304 123.159 6.63851C123.26 6.64662 123.352 6.65068 123.433 6.65068H125.647ZM130.193 11V2.24052H133.733C133.818 2.24052 133.924 2.24458 134.049 2.25269C134.175 2.25674 134.295 2.26891 134.408 2.28919C134.895 2.36624 135.3 2.53251 135.625 2.78799C135.953 3.04348 136.199 3.36587 136.361 3.75518C136.523 4.14449 136.604 4.57436 136.604 5.04477C136.604 5.51924 136.523 5.95113 136.361 6.34045C136.199 6.72976 135.953 7.05215 135.625 7.30764C135.3 7.56312 134.895 7.72939 134.408 7.80644C134.295 7.82266 134.173 7.83483 134.043 7.84294C133.918 7.85105 133.814 7.8551 133.733 7.8551H131.464V11H130.193ZM131.464 6.65068H133.684C133.765 6.65068 133.855 6.64662 133.952 6.63851C134.053 6.6304 134.149 6.61621 134.238 6.59593C134.497 6.5351 134.706 6.42358 134.864 6.26137C135.023 6.0951 135.136 5.9045 135.205 5.68957C135.274 5.47464 135.309 5.2597 135.309 5.04477C135.309 4.82984 135.274 4.61694 135.205 4.40606C135.136 4.19113 135.023 4.00256 134.864 3.84034C134.706 3.67408 134.497 3.56053 134.238 3.4997C134.149 3.47537 134.053 3.45914 133.952 3.45103C133.855 3.44292 133.765 3.43887 133.684 3.43887H131.464V6.65068ZM144.278 11H142.988V4.48514L138.675 11H137.386V2.24052H138.675V8.7493L142.988 2.24052H144.278V11ZM148.941 11.1825C148.297 11.1825 147.717 11.0791 147.202 10.8723C146.691 10.6614 146.257 10.3491 145.9 9.93548C145.547 9.52184 145.286 9.01087 145.115 8.40257L146.362 8.08626C146.537 8.65806 146.843 9.11833 147.281 9.46709C147.723 9.81179 148.252 9.98009 148.868 9.97198C149.294 9.96387 149.696 9.88276 150.073 9.72866C150.45 9.5705 150.76 9.32718 151.004 8.9987C151.21 8.73105 151.358 8.44718 151.448 8.14709C151.541 7.84699 151.602 7.53676 151.63 7.21639H148.491V6.01805H151.636C151.579 5.47058 151.435 4.99003 151.204 4.57638C150.977 4.16274 150.667 3.84034 150.274 3.60919C149.884 3.37398 149.416 3.26043 148.868 3.26855C148.22 3.27666 147.674 3.45914 147.232 3.81601C146.79 4.16882 146.492 4.64735 146.338 5.25159L145.054 5.0691C145.273 4.11205 145.721 3.37196 146.399 2.84882C147.08 2.32163 147.928 2.05803 148.941 2.05803C149.793 2.05803 150.521 2.25066 151.125 2.63592C151.729 3.01712 152.192 3.55039 152.512 4.23574C152.837 4.91703 153.003 5.71187 153.011 6.62026C153.019 7.47188 152.863 8.24239 152.543 8.93179C152.226 9.62119 151.762 10.1687 151.15 10.5742C150.541 10.9797 149.805 11.1825 148.941 11.1825ZM152.945 11V9.91115C153.152 9.93142 153.323 9.92129 153.456 9.88073C153.594 9.83613 153.71 9.75096 153.803 9.62525C153.896 9.49548 153.976 9.30893 154.04 9.06562C154.109 8.8223 154.176 8.50801 154.241 8.12276C154.33 7.63206 154.405 7.12718 154.466 6.6081C154.527 6.08902 154.578 5.57399 154.618 5.06302C154.663 4.548 154.699 4.05122 154.728 3.57269C154.756 3.09417 154.778 2.65011 154.795 2.24052H160.543V11H159.272V3.43887H155.987C155.967 3.76329 155.942 4.12624 155.914 4.52772C155.886 4.9292 155.851 5.355 155.811 5.80514C155.77 6.25528 155.719 6.71962 155.658 7.19814C155.602 7.67667 155.529 8.15723 155.44 8.63981C155.367 9.05345 155.277 9.42654 155.172 9.75907C155.066 10.0916 154.924 10.3694 154.746 10.5924C154.568 10.8114 154.334 10.9574 154.047 11.0304C153.759 11.1075 153.392 11.0973 152.945 11ZM164 11V3.43887H161.086V2.24052H168.185V3.43887H165.271V11H164ZM172.38 11.1825C171.504 11.1825 170.758 10.9919 170.141 10.6107C169.525 10.2254 169.052 9.69013 168.724 9.00479C168.399 8.31944 168.237 7.5246 168.237 6.62026C168.237 5.71593 168.399 4.92109 168.724 4.23574C169.052 3.55039 169.525 3.01712 170.141 2.63592C170.758 2.25066 171.504 2.05803 172.38 2.05803C173.252 2.05803 173.996 2.25066 174.612 2.63592C175.233 3.01712 175.705 3.55039 176.03 4.23574C176.354 4.92109 176.516 5.71593 176.516 6.62026C176.516 7.5246 176.354 8.31944 176.03 9.00479C175.705 9.69013 175.233 10.2254 174.612 10.6107C173.996 10.9919 173.252 11.1825 172.38 11.1825ZM172.38 9.97198C173 9.98009 173.515 9.84424 173.925 9.56442C174.338 9.28055 174.649 8.88718 174.856 8.38432C175.062 7.87741 175.166 7.28939 175.166 6.62026C175.166 5.95113 175.062 5.36717 174.856 4.86837C174.649 4.36551 174.338 3.97417 173.925 3.69435C173.515 3.41454 173 3.2726 172.38 3.26855C171.759 3.26043 171.242 3.39629 170.829 3.6761C170.419 3.95592 170.111 4.34929 169.904 4.8562C169.697 5.36311 169.592 5.95113 169.588 6.62026C169.584 7.28939 169.685 7.87538 169.892 8.37824C170.099 8.87704 170.409 9.26635 170.822 9.54617C171.24 9.82599 171.759 9.96792 172.38 9.97198ZM177.295 11V2.24052H180.835C180.92 2.24052 181.026 2.24458 181.152 2.25269C181.277 2.25674 181.397 2.26891 181.511 2.28919C181.997 2.36624 182.403 2.53251 182.727 2.78799C183.056 3.04348 183.301 3.36587 183.463 3.75518C183.625 4.14449 183.706 4.57436 183.706 5.04477C183.706 5.51924 183.625 5.95113 183.463 6.34045C183.301 6.72976 183.056 7.05215 182.727 7.30764C182.403 7.56312 181.997 7.72939 181.511 7.80644C181.397 7.82266 181.275 7.83483 181.146 7.84294C181.02 7.85105 180.916 7.8551 180.835 7.8551H178.566V11H177.295ZM178.566 6.65068H180.787C180.868 6.65068 180.957 6.64662 181.054 6.63851C181.156 6.6304 181.251 6.61621 181.34 6.59593C181.6 6.5351 181.809 6.42358 181.967 6.26137C182.125 6.0951 182.238 5.9045 182.307 5.68957C182.376 5.47464 182.411 5.2597 182.411 5.04477C182.411 4.82984 182.376 4.61694 182.307 4.40606C182.238 4.19113 182.125 4.00256 181.967 3.84034C181.809 3.67408 181.6 3.56053 181.34 3.4997C181.251 3.47537 181.156 3.45914 181.054 3.45103C180.957 3.44292 180.868 3.43887 180.787 3.43887H178.566V6.65068ZM183.393 11L186.239 2.24052H188.07L190.917 11H189.597L186.975 3.00698H187.304L184.713 11H183.393ZM184.871 9.02303V7.83077H189.445V9.02303H184.871Z" fill="white"/>
<path d="M62.7414 21.9458L64.8965 15.689H65.7438L67.8989 21.9458H67.2341L65.1876 16.0453H65.4397L63.4062 21.9458H62.7414ZM63.7017 20.4294V19.8298H66.9343V20.4294H63.7017ZM68.249 21.9458V17.2532H71.4643V17.8659H68.8877V21.9458H68.249ZM73.8397 22.0762C73.382 22.0762 72.9851 21.9748 72.6491 21.772C72.316 21.5692 72.0568 21.2839 71.8714 20.916C71.686 20.5482 71.5933 20.1166 71.5933 19.6212C71.5933 19.1085 71.6845 18.6653 71.867 18.2917C72.0495 17.918 72.3059 17.6298 72.6361 17.427C72.9692 17.2243 73.3617 17.1229 73.8136 17.1229C74.277 17.1229 74.6724 17.2301 74.9998 17.4444C75.3271 17.6559 75.5747 17.96 75.7428 18.3568C75.9108 18.7537 75.9875 19.2273 75.973 19.7777H75.3213V19.5517C75.3097 18.9434 75.1779 18.4843 74.9259 18.1744C74.6768 17.8644 74.3118 17.7094 73.831 17.7094C73.3269 17.7094 72.9402 17.8731 72.6709 18.2004C72.4044 18.5278 72.2711 18.9941 72.2711 19.5995C72.2711 20.1904 72.4044 20.6495 72.6709 20.9769C72.9402 21.3013 73.3212 21.4635 73.8136 21.4635C74.1496 21.4635 74.4422 21.3867 74.6913 21.2332C74.9433 21.0768 75.1417 20.8523 75.2865 20.5598L75.8818 20.79C75.6964 21.1985 75.4227 21.5156 75.0606 21.7416C74.7014 21.9646 74.2944 22.0762 73.8397 22.0762ZM72.0452 19.7777V19.2432H75.6298V19.7777H72.0452ZM76.4984 21.9458V17.2532H77.1372V19.291H79.7832V17.2532H80.422V21.9458H79.7832V19.9037H77.1372V21.9458H76.4984ZM82.4756 21.9458V17.8441H80.8114V17.2532H84.7784V17.8441H83.1143V21.9458H82.4756ZM87.0341 22.0762C86.5619 22.0762 86.1622 21.9704 85.8349 21.759C85.5075 21.5475 85.2584 21.2564 85.0875 20.8856C84.9195 20.512 84.8326 20.0833 84.8268 19.5995C84.8326 19.1071 84.9224 18.6755 85.0962 18.3047C85.27 17.931 85.5206 17.6414 85.8479 17.4357C86.1752 17.2272 86.572 17.1229 87.0384 17.1229C87.5135 17.1229 87.9262 17.2387 88.2767 17.4705C88.6301 17.7022 88.872 18.0194 89.0023 18.422L88.3767 18.6219C88.2666 18.3409 88.0913 18.1237 87.8509 17.9701C87.6134 17.8137 87.3411 17.7355 87.0341 17.7355C86.6894 17.7355 86.404 17.8152 86.1781 17.9745C85.9522 18.1309 85.7842 18.3496 85.6741 18.6306C85.564 18.9116 85.5075 19.2345 85.5046 19.5995C85.5104 20.1615 85.6408 20.6133 85.8957 20.9551C86.1506 21.2941 86.53 21.4635 87.0341 21.4635C87.3527 21.4635 87.6235 21.3911 87.8466 21.2463C88.0725 21.0985 88.2434 20.8842 88.3593 20.6032L89.0023 20.7944C88.8285 21.2115 88.5736 21.5301 88.2376 21.7503C87.9016 21.9675 87.5004 22.0762 87.0341 22.0762ZM90.6275 21.9458V17.8441H88.9634V17.2532H92.9303V17.8441H91.2662V21.9458H90.6275ZM93.32 21.9458V17.2532H95.2535C95.352 17.2532 95.4707 17.259 95.6098 17.2706C95.7517 17.2822 95.8835 17.3039 96.0052 17.3358C96.2687 17.4053 96.4802 17.5472 96.6395 17.7616C96.8017 17.9759 96.8828 18.2337 96.8828 18.535C96.8828 18.703 96.8568 18.8536 96.8046 18.9869C96.7554 19.1172 96.6844 19.2302 96.5917 19.3258C96.5483 19.375 96.5005 19.4185 96.4483 19.4561C96.3962 19.4909 96.3455 19.5199 96.2963 19.543C96.389 19.5604 96.4889 19.601 96.5961 19.6647C96.7641 19.7632 96.8915 19.8964 96.9784 20.0644C97.0653 20.2295 97.1088 20.4309 97.1088 20.6684C97.1088 20.9899 97.032 21.2521 96.8785 21.4548C96.725 21.6576 96.5193 21.7966 96.2615 21.8719C96.1456 21.9038 96.0196 21.9241 95.8835 21.9328C95.7502 21.9415 95.6242 21.9458 95.5055 21.9458H93.32ZM93.963 21.4027H95.4751C95.5359 21.4027 95.6127 21.3983 95.7054 21.3896C95.798 21.3781 95.8806 21.3636 95.953 21.3462C96.1239 21.3027 96.2485 21.2158 96.3267 21.0855C96.4078 20.9522 96.4483 20.8074 96.4483 20.651C96.4483 20.4453 96.3875 20.2773 96.2659 20.147C96.1471 20.0137 95.9878 19.9326 95.7879 19.9037C95.7213 19.8892 95.6518 19.8805 95.5793 19.8776C95.5069 19.8747 95.4418 19.8732 95.3838 19.8732H93.963V21.4027ZM93.963 19.3258H95.2752C95.3505 19.3258 95.4345 19.3214 95.5272 19.3127C95.6228 19.3012 95.7054 19.2823 95.7749 19.2563C95.9255 19.2041 96.0356 19.1143 96.1051 18.9869C96.1775 18.8594 96.2137 18.7204 96.2137 18.5698C96.2137 18.4046 96.1746 18.2598 96.0964 18.1353C96.0211 18.0107 95.9067 17.9238 95.7531 17.8746C95.6489 17.8369 95.5359 17.8152 95.4142 17.8094C95.2955 17.8036 95.2202 17.8007 95.1883 17.8007H93.963V19.3258ZM99.4999 22.0762C99.0335 22.0762 98.6352 21.9704 98.305 21.759C97.9748 21.5475 97.7213 21.2549 97.5446 20.8813C97.3679 20.5076 97.2796 20.0789 97.2796 19.5952C97.2796 19.1027 97.3694 18.6711 97.549 18.3004C97.7286 17.9296 97.9835 17.6414 98.3137 17.4357C98.6468 17.2272 99.0422 17.1229 99.4999 17.1229C99.9691 17.1229 100.369 17.2286 100.699 17.4401C101.032 17.6486 101.286 17.9397 101.459 18.3134C101.636 18.6842 101.725 19.1114 101.725 19.5952C101.725 20.0876 101.636 20.5206 101.459 20.8943C101.283 21.2651 101.028 21.5548 100.695 21.7633C100.362 21.9719 99.9633 22.0762 99.4999 22.0762ZM99.4999 21.4635C100.021 21.4635 100.409 21.2912 100.664 20.9465C100.919 20.5989 101.047 20.1484 101.047 19.5952C101.047 19.0274 100.918 18.5755 100.66 18.2395C100.405 17.9035 100.018 17.7355 99.4999 17.7355C99.1494 17.7355 98.8597 17.8152 98.6309 17.9745C98.4049 18.1309 98.2355 18.3496 98.1225 18.6306C98.0124 18.9087 97.9574 19.2302 97.9574 19.5952C97.9574 20.16 98.0878 20.6133 98.3485 20.9551C98.6092 21.2941 98.993 21.4635 99.4999 21.4635ZM103.549 21.9458V17.2532H104.188V19.291H106.834V17.2532H107.473V21.9458H106.834V19.9037H104.188V21.9458H103.549ZM110.239 22.0762C109.781 22.0762 109.385 21.9748 109.049 21.772C108.715 21.5692 108.456 21.2839 108.271 20.916C108.085 20.5482 107.993 20.1166 107.993 19.6212C107.993 19.1085 108.084 18.6653 108.266 18.2917C108.449 17.918 108.705 17.6298 109.035 17.427C109.369 17.2243 109.761 17.1229 110.213 17.1229C110.676 17.1229 111.072 17.2301 111.399 17.4444C111.726 17.6559 111.974 17.96 112.142 18.3568C112.31 18.7537 112.387 19.2273 112.372 19.7777H111.721V19.5517C111.709 18.9434 111.577 18.4843 111.325 18.1744C111.076 17.8644 110.711 17.7094 110.23 17.7094C109.726 17.7094 109.34 17.8731 109.07 18.2004C108.804 18.5278 108.67 18.9941 108.67 19.5995C108.67 20.1904 108.804 20.6495 109.07 20.9769C109.34 21.3013 109.721 21.4635 110.213 21.4635C110.549 21.4635 110.842 21.3867 111.091 21.2332C111.343 21.0768 111.541 20.8523 111.686 20.5598L112.281 20.79C112.096 21.1985 111.822 21.5156 111.46 21.7416C111.101 21.9646 110.694 22.0762 110.239 22.0762ZM108.445 19.7777V19.2432H112.029V19.7777H108.445ZM112.555 22.9886V21.3983C112.821 21.3983 113.012 21.3129 113.128 21.142C113.244 20.9682 113.338 20.6916 113.411 20.3121C113.46 20.0659 113.5 19.8008 113.532 19.517C113.564 19.2331 113.592 18.9087 113.615 18.5437C113.638 18.1758 113.66 17.7457 113.68 17.2532H116.782V21.3983H117.234V22.9886H116.617V21.9458H113.167V22.9886H112.555ZM113.636 21.3983H116.148V17.8007H114.271C114.262 18.0208 114.249 18.254 114.232 18.5002C114.217 18.7464 114.198 18.9927 114.175 19.2389C114.155 19.4851 114.13 19.7168 114.101 19.9341C114.075 20.1484 114.043 20.3367 114.006 20.4989C113.962 20.7075 113.915 20.8856 113.862 21.0334C113.813 21.1811 113.738 21.3027 113.636 21.3983ZM117.665 21.9458V17.2532H119.599C119.697 17.2532 119.816 17.259 119.955 17.2706C120.097 17.2822 120.229 17.3039 120.351 17.3358C120.614 17.4053 120.826 17.5472 120.985 17.7616C121.147 17.9759 121.228 18.2337 121.228 18.535C121.228 18.703 121.202 18.8536 121.15 18.9869C121.101 19.1172 121.03 19.2302 120.937 19.3258C120.894 19.375 120.846 19.4185 120.794 19.4561C120.742 19.4909 120.691 19.5199 120.642 19.543C120.734 19.5604 120.834 19.601 120.942 19.6647C121.11 19.7632 121.237 19.8964 121.324 20.0644C121.411 20.2295 121.454 20.4309 121.454 20.6684C121.454 20.9899 121.377 21.2521 121.224 21.4548C121.07 21.6576 120.865 21.7966 120.607 21.8719C120.491 21.9038 120.365 21.9241 120.229 21.9328C120.096 21.9415 119.97 21.9458 119.851 21.9458H117.665ZM118.308 21.4027H119.821C119.881 21.4027 119.958 21.3983 120.051 21.3896C120.144 21.3781 120.226 21.3636 120.298 21.3462C120.469 21.3027 120.594 21.2158 120.672 21.0855C120.753 20.9522 120.794 20.8074 120.794 20.651C120.794 20.4453 120.733 20.2773 120.611 20.147C120.493 20.0137 120.333 19.9326 120.133 19.9037C120.067 19.8892 119.997 19.8805 119.925 19.8776C119.852 19.8747 119.787 19.8732 119.729 19.8732H118.308V21.4027ZM118.308 19.3258H119.621C119.696 19.3258 119.78 19.3214 119.873 19.3127C119.968 19.3012 120.051 19.2823 120.12 19.2563C120.271 19.2041 120.381 19.1143 120.451 18.9869C120.523 18.8594 120.559 18.7204 120.559 18.5698C120.559 18.4046 120.52 18.2598 120.442 18.1353C120.367 18.0107 120.252 17.9238 120.099 17.8746C119.994 17.8369 119.881 17.8152 119.76 17.8094C119.641 17.8036 119.566 17.8007 119.534 17.8007H118.308V19.3258ZM125.614 17.2532V21.9458H124.992V18.2917L122.42 21.9458H121.881V17.2532H122.503V20.8769L125.079 17.2532H125.614ZM125.877 21.9458L127.859 19.5995L125.96 17.2532H126.681L128.532 19.5691V17.2532H129.123V19.5691L130.974 17.2532H131.691L129.792 19.5995L131.773 21.9458H131.03L129.123 19.6299V21.9458H128.532V19.6299L126.62 21.9458H125.877ZM135.76 17.2532V21.9458H135.139V18.2917L132.566 21.9458H132.028V17.2532H132.649V20.8769L135.226 17.2532H135.76ZM136.541 21.9458V17.2532H137.11L138.939 21.0942L140.773 17.2532H141.337V21.9458H140.72V18.6175L139.143 21.9458H138.739L137.162 18.6175V21.9458H136.541ZM144.078 22.0762C143.612 22.0762 143.214 21.9704 142.883 21.759C142.553 21.5475 142.3 21.2549 142.123 20.8813C141.946 20.5076 141.858 20.0789 141.858 19.5952C141.858 19.1027 141.948 18.6711 142.127 18.3004C142.307 17.9296 142.562 17.6414 142.892 17.4357C143.225 17.2272 143.621 17.1229 144.078 17.1229C144.548 17.1229 144.947 17.2286 145.278 17.4401C145.611 17.6486 145.864 17.9397 146.038 18.3134C146.215 18.6842 146.303 19.1114 146.303 19.5952C146.303 20.0876 146.215 20.5206 146.038 20.8943C145.861 21.2651 145.606 21.5548 145.273 21.7633C144.94 21.9719 144.542 22.0762 144.078 22.0762ZM144.078 21.4635C144.6 21.4635 144.988 21.2912 145.243 20.9465C145.498 20.5989 145.625 20.1484 145.625 19.5952C145.625 19.0274 145.496 18.5755 145.238 18.2395C144.984 17.9035 144.597 17.7355 144.078 17.7355C143.728 17.7355 143.438 17.8152 143.209 17.9745C142.983 18.1309 142.814 18.3496 142.701 18.6306C142.591 18.9087 142.536 19.2302 142.536 19.5952C142.536 20.16 142.666 20.6133 142.927 20.9551C143.188 21.2941 143.571 21.4635 144.078 21.4635ZM148.773 22.0762C148.301 22.0762 147.902 21.9704 147.574 21.759C147.247 21.5475 146.998 21.2564 146.827 20.8856C146.659 20.512 146.572 20.0833 146.566 19.5995C146.572 19.1071 146.662 18.6755 146.836 18.3047C147.009 17.931 147.26 17.6414 147.587 17.4357C147.915 17.2272 148.311 17.1229 148.778 17.1229C149.253 17.1229 149.666 17.2387 150.016 17.4705C150.37 17.7022 150.611 18.0194 150.742 18.422L150.116 18.6219C150.006 18.3409 149.831 18.1237 149.59 17.9701C149.353 17.8137 149.081 17.7355 148.773 17.7355C148.429 17.7355 148.143 17.8152 147.918 17.9745C147.692 18.1309 147.524 18.3496 147.414 18.6306C147.303 18.9116 147.247 19.2345 147.244 19.5995C147.25 20.1615 147.38 20.6133 147.635 20.9551C147.89 21.2941 148.269 21.4635 148.773 21.4635C149.092 21.4635 149.363 21.3911 149.586 21.2463C149.812 21.0985 149.983 20.8842 150.099 20.6032L150.742 20.7944C150.568 21.2115 150.313 21.5301 149.977 21.7503C149.641 21.9675 149.24 22.0762 148.773 22.0762ZM152.367 21.9458V17.8441H150.703V17.2532H154.67V17.8441H153.006V21.9458H152.367ZM158.792 17.2532V21.9458H158.17V18.2917L155.598 21.9458H155.059V17.2532H155.681V20.8769L158.257 17.2532H158.792ZM63.1716 30.9458V26.2532H65.1051C65.2036 26.2532 65.3223 26.259 65.4614 26.2706C65.6033 26.2822 65.7351 26.3039 65.8568 26.3358C66.1204 26.4053 66.3318 26.5472 66.4911 26.7616C66.6534 26.9759 66.7345 27.2337 66.7345 27.535C66.7345 27.703 66.7084 27.8536 66.6563 27.9869C66.607 28.1172 66.536 28.2302 66.4433 28.3258C66.3999 28.375 66.3521 28.4185 66.3 28.4561C66.2478 28.4909 66.1971 28.5199 66.1479 28.543C66.2406 28.5604 66.3405 28.601 66.4477 28.6647C66.6157 28.7632 66.7432 28.8964 66.8301 29.0644C66.917 29.2295 66.9604 29.4309 66.9604 29.6684C66.9604 29.9899 66.8836 30.2521 66.7301 30.4548C66.5766 30.6576 66.3709 30.7966 66.1131 30.8719C65.9973 30.9038 65.8713 30.9241 65.7351 30.9328C65.6019 30.9415 65.4759 30.9458 65.3571 30.9458H63.1716ZM63.8146 30.4027H65.3267C65.3875 30.4027 65.4643 30.3983 65.557 30.3896C65.6497 30.3781 65.7322 30.3636 65.8046 30.3462C65.9755 30.3027 66.1001 30.2158 66.1783 30.0855C66.2594 29.9522 66.3 29.8074 66.3 29.651C66.3 29.4453 66.2391 29.2773 66.1175 29.147C65.9987 29.0137 65.8394 28.9326 65.6395 28.9037C65.5729 28.8892 65.5034 28.8805 65.431 28.8776C65.3586 28.8747 65.2934 28.8732 65.2354 28.8732H63.8146V30.4027ZM63.8146 28.3258H65.1268C65.2021 28.3258 65.2861 28.3214 65.3788 28.3127C65.4744 28.3012 65.557 28.2823 65.6265 28.2563C65.7771 28.2041 65.8872 28.1143 65.9567 27.9869C66.0291 27.8594 66.0653 27.7204 66.0653 27.5698C66.0653 27.4046 66.0262 27.2598 65.948 27.1353C65.8727 27.0107 65.7583 26.9238 65.6048 26.8746C65.5005 26.8369 65.3875 26.8152 65.2659 26.8094C65.1471 26.8036 65.0718 26.8007 65.0399 26.8007H63.8146V28.3258ZM71.2302 31.0762C70.6074 31.0762 70.0817 30.9386 69.653 30.6634C69.2243 30.3853 68.8999 30.0015 68.6797 29.512C68.4596 29.0224 68.3495 28.4576 68.3495 27.8174C68.3495 27.1773 68.4596 26.6124 68.6797 26.1229C68.8999 25.6333 69.2243 25.251 69.653 24.9758C70.0817 24.6977 70.6074 24.5587 71.2302 24.5587C71.9573 24.5587 72.5511 24.7455 73.0117 25.1192C73.4722 25.49 73.788 25.9882 73.9589 26.6139L73.3071 26.7833C73.1739 26.288 72.9349 25.8955 72.5902 25.6058C72.2455 25.3162 71.7922 25.1713 71.2302 25.1713C70.7407 25.1713 70.3337 25.2828 70.0093 25.5059C69.6849 25.7289 69.4401 26.0403 69.275 26.4401C69.1128 26.8369 69.0288 27.296 69.023 27.8174C69.0201 28.3388 69.0997 28.7979 69.2619 29.1948C69.4271 29.5916 69.6733 29.903 70.0006 30.1289C70.3308 30.352 70.7407 30.4635 71.2302 30.4635C71.7922 30.4635 72.2455 30.3187 72.5902 30.029C72.9349 29.7364 73.1739 29.344 73.3071 28.8515L73.9589 29.021C73.788 29.6467 73.4722 30.1463 73.0117 30.52C72.5511 30.8908 71.9573 31.0762 71.2302 31.0762ZM75.8256 31.0762C75.4723 31.0762 75.1754 31.0124 74.9349 30.885C74.6974 30.7575 74.5193 30.5881 74.4005 30.3766C74.2817 30.1652 74.2224 29.9349 74.2224 29.6858C74.2224 29.4309 74.273 29.2136 74.3744 29.034C74.4787 28.8515 74.6192 28.7023 74.7959 28.5865C74.9755 28.4706 75.1826 28.3823 75.4172 28.3214C75.6547 28.2635 75.9169 28.2128 76.2037 28.1694C76.4933 28.123 76.7758 28.0839 77.0509 28.052C77.329 28.0173 77.5723 27.984 77.7809 27.9521L77.555 28.0911C77.5636 27.6277 77.4738 27.2844 77.2856 27.0614C77.0973 26.8383 76.77 26.7268 76.3036 26.7268C75.9821 26.7268 75.7098 26.7992 75.4867 26.9441C75.2666 27.0889 75.1116 27.3177 75.0218 27.6306L74.4005 27.4481C74.5077 27.0281 74.7235 26.7022 75.0479 26.4705C75.3723 26.2387 75.7938 26.1229 76.3123 26.1229C76.741 26.1229 77.1045 26.204 77.4029 26.3662C77.7041 26.5255 77.917 26.7572 78.0416 27.0614C78.0995 27.1975 78.1372 27.3496 78.1546 27.5176C78.1719 27.6856 78.1806 27.8565 78.1806 28.0303V30.9458H77.6114V29.7683L77.7765 29.8378C77.6172 30.2405 77.3696 30.5475 77.0336 30.759C76.6975 30.9704 76.2949 31.0762 75.8256 31.0762ZM75.8995 30.5243C76.1979 30.5243 76.4586 30.4707 76.6816 30.3636C76.9047 30.2564 77.0842 30.1101 77.2204 29.9247C77.3565 29.7364 77.4449 29.525 77.4854 29.2904C77.5202 29.1397 77.539 28.9746 77.5419 28.795C77.5448 28.6125 77.5463 28.4764 77.5463 28.3866L77.7896 28.5126C77.5723 28.5416 77.3363 28.5705 77.0813 28.5995C76.8293 28.6285 76.5802 28.6618 76.334 28.6994C76.0907 28.7371 75.8705 28.782 75.6736 28.8341C75.5403 28.8718 75.4114 28.9254 75.2869 28.9949C75.1623 29.0615 75.0595 29.1513 74.9784 29.2643C74.9002 29.3773 74.8611 29.5178 74.8611 29.6858C74.8611 29.8219 74.8944 29.9537 74.961 30.0812C75.0305 30.2086 75.1406 30.3143 75.2912 30.3983C75.4447 30.4823 75.6475 30.5243 75.8995 30.5243ZM78.8729 30.9458V26.2532H79.5116V28.291H82.1577V26.2532H82.7964V30.9458H82.1577V28.9037H79.5116V30.9458H78.8729ZM83.5726 30.9458L83.577 26.2532H84.22V28.5126L86.3143 26.2532H87.1659L84.9673 28.5995L87.4527 30.9458H86.5229L84.22 28.6864V30.9458H83.5726ZM88.7266 30.9458V26.8441H87.0624V26.2532H91.0294V26.8441H89.3653V30.9458H88.7266ZM91.3365 28.4822V27.9347H93.9435V28.4822H91.3365ZM94.638 30.9458V24.689H99.4305V30.9458H98.7918V25.3017H95.2767V30.9458H94.638ZM102.197 31.0762C101.74 31.0762 101.343 30.9748 101.007 30.772C100.674 30.5692 100.415 30.2839 100.229 29.916C100.044 29.5482 99.9511 29.1166 99.9511 28.6212C99.9511 28.1085 100.042 27.6653 100.225 27.2917C100.407 26.918 100.664 26.6298 100.994 26.427C101.327 26.2243 101.719 26.1229 102.171 26.1229C102.635 26.1229 103.03 26.2301 103.358 26.4444C103.685 26.6559 103.933 26.96 104.101 27.3568C104.269 27.7537 104.345 28.2273 104.331 28.7777H103.679V28.5517C103.667 27.9434 103.536 27.4843 103.284 27.1744C103.035 26.8644 102.67 26.7094 102.189 26.7094C101.685 26.7094 101.298 26.8731 101.029 27.2004C100.762 27.5278 100.629 27.9941 100.629 28.5995C100.629 29.1904 100.762 29.6495 101.029 29.9769C101.298 30.3013 101.679 30.4635 102.171 30.4635C102.507 30.4635 102.8 30.3867 103.049 30.2332C103.301 30.0768 103.499 29.8523 103.644 29.5598L104.24 29.79C104.054 30.1985 103.78 30.5156 103.418 30.7416C103.059 30.9646 102.652 31.0762 102.197 31.0762ZM100.403 28.7777V28.2432H103.988V28.7777H100.403ZM106.074 30.9458V26.8441H104.41V26.2532H108.377V26.8441H106.713V30.9458H106.074ZM110.757 31.0762C110.299 31.0762 109.902 30.9748 109.566 30.772C109.233 30.5692 108.974 30.2839 108.788 29.916C108.603 29.5482 108.51 29.1166 108.51 28.6212C108.51 28.1085 108.602 27.6653 108.784 27.2917C108.967 26.918 109.223 26.6298 109.553 26.427C109.886 26.2243 110.279 26.1229 110.731 26.1229C111.194 26.1229 111.589 26.2301 111.917 26.4444C112.244 26.6559 112.492 26.96 112.66 27.3568C112.828 27.7537 112.905 28.2273 112.89 28.7777H112.238V28.5517C112.227 27.9434 112.095 27.4843 111.843 27.1744C111.594 26.8644 111.229 26.7094 110.748 26.7094C110.244 26.7094 109.857 26.8731 109.588 27.2004C109.321 27.5278 109.188 27.9941 109.188 28.5995C109.188 29.1904 109.321 29.6495 109.588 29.9769C109.857 30.3013 110.238 30.4635 110.731 30.4635C111.067 30.4635 111.359 30.3867 111.608 30.2332C111.86 30.0768 112.059 29.8523 112.204 29.5598L112.799 29.79C112.613 30.1985 112.34 30.5156 111.978 30.7416C111.618 30.9646 111.211 31.0762 110.757 31.0762ZM108.962 28.7777V28.2432H112.547V28.7777H108.962ZM115.527 31.0762C115.096 31.0762 114.731 30.9675 114.432 30.7503C114.134 30.5301 113.908 30.2332 113.754 29.8596C113.601 29.483 113.524 29.0615 113.524 28.5952C113.524 28.1201 113.601 27.6972 113.754 27.3264C113.911 26.9528 114.14 26.6588 114.441 26.4444C114.742 26.2301 115.113 26.1229 115.553 26.1229C115.982 26.1229 116.35 26.2315 116.657 26.4487C116.964 26.666 117.199 26.9615 117.361 27.3351C117.526 27.7088 117.608 28.1288 117.608 28.5952C117.608 29.0644 117.526 29.4859 117.361 29.8596C117.196 30.2332 116.958 30.5301 116.648 30.7503C116.338 30.9675 115.965 31.0762 115.527 31.0762ZM113.415 33.0314V26.2532H113.989V29.7857H114.059V33.0314H113.415ZM115.462 30.4809C115.789 30.4809 116.062 30.3983 116.279 30.2332C116.496 30.0681 116.658 29.8436 116.765 29.5598C116.876 29.273 116.931 28.9515 116.931 28.5952C116.931 28.2418 116.877 27.9231 116.77 27.6393C116.663 27.3554 116.499 27.1309 116.279 26.9658C116.062 26.8007 115.785 26.7181 115.449 26.7181C115.122 26.7181 114.849 26.7978 114.632 26.9571C114.418 27.1164 114.257 27.338 114.15 27.6219C114.043 27.9029 113.989 28.2273 113.989 28.5952C113.989 28.9572 114.043 29.2817 114.15 29.5684C114.257 29.8523 114.419 30.0754 114.636 30.2376C114.854 30.3998 115.129 30.4809 115.462 30.4809ZM120.009 31.0805C119.572 31.0776 119.197 30.982 118.884 30.7937C118.571 30.6054 118.328 30.3245 118.154 29.9508C117.983 29.5771 117.89 29.1108 117.876 28.5517C117.867 28.3055 117.873 28.0376 117.893 27.7479C117.914 27.4553 117.946 27.1773 117.989 26.9137C118.032 26.6501 118.085 26.4357 118.145 26.2706C118.221 26.0563 118.328 25.8564 118.467 25.671C118.609 25.4827 118.773 25.3292 118.958 25.2104C119.138 25.0888 119.34 24.9946 119.566 24.928C119.795 24.8585 120.033 24.8049 120.279 24.7672C120.528 24.7296 120.774 24.6963 121.017 24.6673C121.264 24.6383 121.491 24.6021 121.7 24.5587L121.769 25.1366C121.61 25.1684 121.422 25.1974 121.204 25.2235C120.987 25.2495 120.76 25.2814 120.522 25.3191C120.285 25.3538 120.057 25.4016 119.84 25.4624C119.623 25.5233 119.437 25.6029 119.284 25.7014C119.049 25.8433 118.868 26.0577 118.741 26.3445C118.616 26.6312 118.539 26.96 118.51 27.3308C118.69 27.0498 118.927 26.8383 119.223 26.6964C119.521 26.5545 119.844 26.4835 120.192 26.4835C120.615 26.4835 120.978 26.5805 121.282 26.7746C121.59 26.9687 121.826 27.2381 121.991 27.5828C122.156 27.9275 122.238 28.3229 122.238 28.769C122.238 29.2353 122.147 29.6423 121.965 29.9899C121.785 30.3375 121.529 30.6069 121.196 30.7981C120.862 30.9864 120.467 31.0805 120.009 31.0805ZM120.057 30.4679C120.55 30.4679 120.923 30.3143 121.178 30.0073C121.436 29.7002 121.565 29.2918 121.565 28.782C121.565 28.2606 121.432 27.8493 121.165 27.548C120.902 27.2468 120.529 27.0961 120.048 27.0961C119.568 27.0961 119.198 27.2468 118.941 27.548C118.683 27.8493 118.554 28.2606 118.554 28.782C118.554 29.3034 118.683 29.7147 118.941 30.016C119.198 30.3172 119.571 30.4679 120.057 30.4679ZM123.259 33.0314L124.167 30.5678L124.18 31.2977L122.125 26.2532H122.803L124.489 30.4722H124.211L125.766 26.2532H126.418L123.898 33.0314H123.259ZM128.846 31.0762C128.414 31.0762 128.049 30.9675 127.751 30.7503C127.452 30.5301 127.226 30.2332 127.073 29.8596C126.919 29.483 126.842 29.0615 126.842 28.5952C126.842 28.1201 126.919 27.6972 127.073 27.3264C127.229 26.9528 127.458 26.6588 127.759 26.4444C128.061 26.2301 128.431 26.1229 128.872 26.1229C129.3 26.1229 129.668 26.2315 129.975 26.4487C130.282 26.666 130.517 26.9615 130.679 27.3351C130.844 27.7088 130.927 28.1288 130.927 28.5952C130.927 29.0644 130.844 29.4859 130.679 29.8596C130.514 30.2332 130.276 30.5301 129.967 30.7503C129.657 30.9675 129.283 31.0762 128.846 31.0762ZM126.734 33.0314V26.2532H127.307V29.7857H127.377V33.0314H126.734ZM128.78 30.4809C129.108 30.4809 129.38 30.3983 129.597 30.2332C129.814 30.0681 129.977 29.8436 130.084 29.5598C130.194 29.273 130.249 28.9515 130.249 28.5952C130.249 28.2418 130.195 27.9231 130.088 27.6393C129.981 27.3554 129.817 27.1309 129.597 26.9658C129.38 26.8007 129.103 26.7181 128.767 26.7181C128.44 26.7181 128.168 26.7978 127.95 26.9571C127.736 27.1164 127.575 27.338 127.468 27.6219C127.361 27.9029 127.307 28.2273 127.307 28.5952C127.307 28.9572 127.361 29.2817 127.468 29.5684C127.575 29.8523 127.738 30.0754 127.955 30.2376C128.172 30.3998 128.447 30.4809 128.78 30.4809ZM131.446 30.9458V26.2532H134.662V26.8659H132.085V30.9458H131.446ZM137.037 31.0762C136.579 31.0762 136.183 30.9748 135.846 30.772C135.513 30.5692 135.254 30.2839 135.069 29.916C134.883 29.5482 134.791 29.1166 134.791 28.6212C134.791 28.1085 134.882 27.6653 135.064 27.2917C135.247 26.918 135.503 26.6298 135.833 26.427C136.167 26.2243 136.559 26.1229 137.011 26.1229C137.474 26.1229 137.87 26.2301 138.197 26.4444C138.524 26.6559 138.772 26.96 138.94 27.3568C139.108 27.7537 139.185 28.2273 139.17 28.7777H138.519V28.5517C138.507 27.9434 138.375 27.4843 138.123 27.1744C137.874 26.8644 137.509 26.7094 137.028 26.7094C136.524 26.7094 136.138 26.8731 135.868 27.2004C135.602 27.5278 135.468 27.9941 135.468 28.5995C135.468 29.1904 135.602 29.6495 135.868 29.9769C136.138 30.3013 136.519 30.4635 137.011 30.4635C137.347 30.4635 137.64 30.3867 137.889 30.2332C138.141 30.0768 138.339 29.8523 138.484 29.5598L139.079 29.79C138.894 30.1985 138.62 30.5156 138.258 30.7416C137.899 30.9646 137.492 31.0762 137.037 31.0762ZM135.243 28.7777V28.2432H138.827V28.7777H135.243ZM144.733 26.2532V30.9458H144.112V27.2917L141.54 30.9458H141.001V26.2532H141.622V29.8769L144.199 26.2532H144.733ZM146.389 30.9458V30.3766C146.548 30.3911 146.68 30.3853 146.784 30.3592C146.889 30.3303 146.973 30.2665 147.036 30.168C147.103 30.0696 147.161 29.9233 147.21 29.7292C147.259 29.5322 147.309 29.2759 147.358 28.9601C147.413 28.6183 147.459 28.278 147.497 27.9391C147.538 27.6002 147.572 27.2569 147.601 26.9093C147.633 26.5588 147.659 26.1996 147.68 25.8318C147.7 25.4639 147.719 25.083 147.736 24.689H151.686V30.9458H151.047V25.3017H148.353C148.333 25.6 148.312 25.9056 148.292 26.2185C148.275 26.5313 148.252 26.8514 148.223 27.1787C148.197 27.506 148.163 27.8435 148.123 28.1911C148.085 28.5358 148.037 28.8921 147.979 29.2599C147.933 29.538 147.878 29.7958 147.814 30.0334C147.753 30.2709 147.666 30.4707 147.554 30.633C147.443 30.7952 147.294 30.9067 147.106 30.9675C146.921 31.0284 146.682 31.0211 146.389 30.9458ZM154.451 31.0762C153.993 31.0762 153.596 30.9748 153.26 30.772C152.927 30.5692 152.668 30.2839 152.483 29.916C152.297 29.5482 152.205 29.1166 152.205 28.6212C152.205 28.1085 152.296 27.6653 152.478 27.2917C152.661 26.918 152.917 26.6298 153.247 26.427C153.58 26.2243 153.973 26.1229 154.425 26.1229C154.888 26.1229 155.284 26.2301 155.611 26.4444C155.938 26.6559 156.186 26.96 156.354 27.3568C156.522 27.7537 156.599 28.2273 156.584 28.7777H155.933V28.5517C155.921 27.9434 155.789 27.4843 155.537 27.1744C155.288 26.8644 154.923 26.7094 154.442 26.7094C153.938 26.7094 153.551 26.8731 153.282 27.2004C153.016 27.5278 152.882 27.9941 152.882 28.5995C152.882 29.1904 153.016 29.6495 153.282 29.9769C153.551 30.3013 153.932 30.4635 154.425 30.4635C154.761 30.4635 155.053 30.3867 155.303 30.2332C155.555 30.0768 155.753 29.8523 155.898 29.5598L156.493 29.79C156.308 30.1985 156.034 30.5156 155.672 30.7416C155.313 30.9646 154.906 31.0762 154.451 31.0762ZM152.656 28.7777V28.2432H156.241V28.7777H152.656ZM157.11 30.9458V26.2532H157.748V28.291H160.394V26.2532H161.033V30.9458H160.394V28.9037H157.748V30.9458H157.11ZM163.773 31.0762C163.307 31.0762 162.909 30.9704 162.578 30.759C162.248 30.5475 161.995 30.2549 161.818 29.8813C161.641 29.5076 161.553 29.0789 161.553 28.5952C161.553 28.1027 161.643 27.6711 161.822 27.3004C162.002 26.9296 162.257 26.6414 162.587 26.4357C162.92 26.2272 163.316 26.1229 163.773 26.1229C164.243 26.1229 164.642 26.2286 164.973 26.4401C165.306 26.6486 165.559 26.9397 165.733 27.3134C165.91 27.6842 165.998 28.1114 165.998 28.5952C165.998 29.0876 165.91 29.5206 165.733 29.8943C165.556 30.2651 165.301 30.5548 164.968 30.7633C164.635 30.9719 164.237 31.0762 163.773 31.0762ZM163.773 30.4635C164.295 30.4635 164.683 30.2912 164.938 29.9465C165.193 29.5989 165.32 29.1484 165.32 28.5952C165.32 28.0274 165.191 27.5755 164.933 27.2395C164.679 26.9035 164.292 26.7355 163.773 26.7355C163.423 26.7355 163.133 26.8152 162.904 26.9745C162.678 27.1309 162.509 27.3496 162.396 27.6306C162.286 27.9087 162.231 28.2302 162.231 28.5952C162.231 29.16 162.361 29.6133 162.622 29.9551C162.883 30.2941 163.266 30.4635 163.773 30.4635ZM168.403 31.0805C167.966 31.0776 167.591 30.982 167.278 30.7937C166.965 30.6054 166.722 30.3245 166.548 29.9508C166.377 29.5771 166.284 29.1108 166.27 28.5517C166.261 28.3055 166.267 28.0376 166.287 27.7479C166.308 27.4553 166.339 27.1773 166.383 26.9137C166.426 26.6501 166.478 26.4357 166.539 26.2706C166.615 26.0563 166.722 25.8564 166.861 25.671C167.003 25.4827 167.166 25.3292 167.352 25.2104C167.531 25.0888 167.734 24.9946 167.96 24.928C168.189 24.8585 168.426 24.8049 168.673 24.7672C168.922 24.7296 169.168 24.6963 169.411 24.6673C169.658 24.6383 169.885 24.6021 170.093 24.5587L170.163 25.1366C170.004 25.1684 169.815 25.1974 169.598 25.2235C169.381 25.2495 169.154 25.2814 168.916 25.3191C168.678 25.3538 168.451 25.4016 168.234 25.4624C168.017 25.5233 167.831 25.6029 167.678 25.7014C167.443 25.8433 167.262 26.0577 167.135 26.3445C167.01 26.6312 166.933 26.96 166.904 27.3308C167.084 27.0498 167.321 26.8383 167.617 26.6964C167.915 26.5545 168.238 26.4835 168.586 26.4835C169.009 26.4835 169.372 26.5805 169.676 26.7746C169.983 26.9687 170.219 27.2381 170.385 27.5828C170.55 27.9275 170.632 28.3229 170.632 28.769C170.632 29.2353 170.541 29.6423 170.359 29.9899C170.179 30.3375 169.923 30.6069 169.589 30.7981C169.256 30.9864 168.861 31.0805 168.403 31.0805ZM168.451 30.4679C168.944 30.4679 169.317 30.3143 169.572 30.0073C169.83 29.7002 169.959 29.2918 169.959 28.782C169.959 28.2606 169.826 27.8493 169.559 27.548C169.295 27.2468 168.923 27.0961 168.442 27.0961C167.962 27.0961 167.592 27.2468 167.334 27.548C167.077 27.8493 166.948 28.2606 166.948 28.782C166.948 29.3034 167.077 29.7147 167.334 30.016C167.592 30.3172 167.964 30.4679 168.451 30.4679ZM170.719 30.9458V30.3853C170.893 30.4172 171.025 30.4099 171.115 30.3636C171.207 30.3143 171.275 30.2332 171.319 30.1203C171.362 30.0044 171.398 29.861 171.427 29.6901C171.474 29.4062 171.516 29.0934 171.553 28.7516C171.591 28.4098 171.624 28.0332 171.653 27.6219C171.685 27.2077 171.717 26.7514 171.749 26.2532H174.938V30.9458H174.304V26.8659H172.34C172.32 27.1729 172.296 27.4785 172.27 27.7827C172.244 28.0868 172.217 28.3794 172.188 28.6603C172.162 28.9384 172.133 29.1948 172.101 29.4294C172.069 29.664 172.036 29.8668 172.001 30.0377C171.949 30.2955 171.879 30.5012 171.792 30.6547C171.708 30.8082 171.582 30.9096 171.414 30.9588C171.246 31.0081 171.015 31.0037 170.719 30.9458ZM177.06 31.0762C176.707 31.0762 176.41 31.0124 176.17 30.885C175.932 30.7575 175.754 30.5881 175.635 30.3766C175.516 30.1652 175.457 29.9349 175.457 29.6858C175.457 29.4309 175.508 29.2136 175.609 29.034C175.713 28.8515 175.854 28.7023 176.03 28.5865C176.21 28.4706 176.417 28.3823 176.652 28.3214C176.889 28.2635 177.151 28.2128 177.438 28.1694C177.728 28.123 178.01 28.0839 178.286 28.052C178.564 28.0173 178.807 27.984 179.015 27.9521L178.79 28.0911C178.798 27.6277 178.708 27.2844 178.52 27.0614C178.332 26.8383 178.005 26.7268 177.538 26.7268C177.217 26.7268 176.944 26.7992 176.721 26.9441C176.501 27.0889 176.346 27.3177 176.256 27.6306L175.635 27.4481C175.742 27.0281 175.958 26.7022 176.282 26.4705C176.607 26.2387 177.028 26.1229 177.547 26.1229C177.976 26.1229 178.339 26.204 178.637 26.3662C178.939 26.5255 179.152 26.7572 179.276 27.0614C179.334 27.1975 179.372 27.3496 179.389 27.5176C179.407 27.6856 179.415 27.8565 179.415 28.0303V30.9458H178.846V29.7683L179.011 29.8378C178.852 30.2405 178.604 30.5475 178.268 30.759C177.932 30.9704 177.53 31.0762 177.06 31.0762ZM177.134 30.5243C177.432 30.5243 177.693 30.4707 177.916 30.3636C178.139 30.2564 178.319 30.1101 178.455 29.9247C178.591 29.7364 178.679 29.525 178.72 29.2904C178.755 29.1397 178.774 28.9746 178.777 28.795C178.779 28.6125 178.781 28.4764 178.781 28.3866L179.024 28.5126C178.807 28.5416 178.571 28.5705 178.316 28.5995C178.064 28.6285 177.815 28.6618 177.569 28.6994C177.325 28.7371 177.105 28.782 176.908 28.8341C176.775 28.8718 176.646 28.9254 176.521 28.9949C176.397 29.0615 176.294 29.1513 176.213 29.2643C176.135 29.3773 176.096 29.5178 176.096 29.6858C176.096 29.8219 176.129 29.9537 176.196 30.0812C176.265 30.2086 176.375 30.3143 176.526 30.3983C176.679 30.4823 176.882 30.5243 177.134 30.5243ZM182.058 31.0762C181.586 31.0762 181.187 30.9704 180.859 30.759C180.532 30.5475 180.283 30.2564 180.112 29.8856C179.944 29.512 179.857 29.0833 179.851 28.5995C179.857 28.1071 179.947 27.6755 180.121 27.3047C180.294 26.931 180.545 26.6414 180.872 26.4357C181.2 26.2272 181.596 26.1229 182.063 26.1229C182.538 26.1229 182.951 26.2387 183.301 26.4705C183.654 26.7022 183.896 27.0194 184.027 27.422L183.401 27.6219C183.291 27.3409 183.116 27.1237 182.875 26.9701C182.638 26.8137 182.365 26.7355 182.058 26.7355C181.714 26.7355 181.428 26.8152 181.202 26.9745C180.977 27.1309 180.808 27.3496 180.698 27.6306C180.588 27.9116 180.532 28.2345 180.529 28.5995C180.535 29.1615 180.665 29.6133 180.92 29.9551C181.175 30.2941 181.554 30.4635 182.058 30.4635C182.377 30.4635 182.648 30.3911 182.871 30.2463C183.097 30.0985 183.268 29.8842 183.384 29.6032L184.027 29.7944C183.853 30.2115 183.598 30.5301 183.262 30.7503C182.926 30.9675 182.525 31.0762 182.058 31.0762ZM185.652 30.9458V26.8441H183.988V26.2532H187.955V26.8441H186.291V30.9458H185.652ZM192.077 26.2532V30.9458H191.455V27.2917L188.883 30.9458H188.344V26.2532H188.966V29.8769L191.542 26.2532H192.077Z" fill="white" fill-opacity="0.6"/>
<defs>
<clipPath id="clip0_532_756">
<rect width="45.5188" height="19.1755" fill="white" transform="translate(0 6.10129)"/>
</clipPath>
</defs>
</svg>
