<svg width="14" height="14" viewBox="0 0 14 14" fill="none" xmlns="http://www.w3.org/2000/svg">
<path d="M2.33366 11.6666C2.01283 11.6666 1.73827 11.5524 1.50999 11.3242C1.28171 11.0959 1.16738 10.8211 1.16699 10.4999V3.49992C1.16699 3.17909 1.28133 2.90453 1.50999 2.67625C1.73866 2.44797 2.01321 2.33364 2.33366 2.33325H11.667C11.9878 2.33325 12.2626 2.44759 12.4912 2.67625C12.7199 2.90492 12.834 3.17947 12.8337 3.49992V10.4999C12.8337 10.8208 12.7195 11.0955 12.4912 11.3242C12.263 11.5528 11.9882 11.667 11.667 11.6666H2.33366ZM7.00033 7.58325L11.667 4.66659V3.49992L7.00033 6.41658L2.33366 3.49992V4.66659L7.00033 7.58325Z" fill="#D3A77D"/>
</svg>
