<svg width="14" height="14" viewBox="0 0 14 14" fill="none" xmlns="http://www.w3.org/2000/svg">
<path d="M9.65784 7.52857L9.39242 7.79282C9.39242 7.79282 8.76067 8.42049 7.03692 6.70665C5.31317 4.99282 5.94492 4.36515 5.94492 4.36515L6.11176 4.19832C6.52417 3.78882 6.56326 3.13082 6.20334 2.65015L5.46834 1.6684C5.02267 1.0734 4.16226 0.994653 3.65184 1.50215L2.73601 2.41215C2.48342 2.66415 2.31426 2.98965 2.33467 3.35132C2.38717 4.27707 2.80601 6.26799 5.14167 8.59082C7.61909 11.0537 9.94367 11.1517 10.8939 11.063C11.1949 11.035 11.4563 10.8822 11.6668 10.6722L12.4952 9.84849C13.0552 9.29257 12.8977 8.33882 12.1813 7.94974L11.0672 7.34365C10.597 7.08874 10.0253 7.1634 9.65784 7.52857Z" fill="#D3A77D"/>
</svg>
