<svg width="14" height="14" viewBox="0 0 14 14" fill="none" xmlns="http://www.w3.org/2000/svg">
<path d="M9.65686 7.52881L9.39145 7.79306C9.39145 7.79306 8.7597 8.42073 7.03595 6.7069C5.3122 4.99306 5.94395 4.3654 5.94395 4.3654L6.11078 4.19856C6.5232 3.78906 6.56228 3.13106 6.20236 2.6504L5.46736 1.66865C5.0217 1.07365 4.16128 0.994897 3.65086 1.5024L2.73503 2.4124C2.48245 2.6644 2.31328 2.9899 2.3337 3.35156C2.3862 4.27731 2.80503 6.26823 5.1407 8.59106C7.61811 11.0539 9.9427 11.1519 10.8929 11.0632C11.1939 11.0352 11.4553 10.8824 11.6659 10.6724L12.4942 9.84873C13.0542 9.29281 12.8967 8.33906 12.1804 7.94998L11.0662 7.3439C10.596 7.08898 10.0244 7.16365 9.65686 7.52881Z" fill="#D3A77D"/>
</svg>
