<svg width="14" height="14" viewBox="0 0 14 14" fill="none" xmlns="http://www.w3.org/2000/svg">
<path d="M7.00033 1.16669C10.2221 1.16669 12.8337 3.77827 12.8337 7.00002C12.8337 10.2218 10.2221 12.8334 7.00033 12.8334C3.77858 12.8334 1.16699 10.2218 1.16699 7.00002C1.16699 3.77827 3.77858 1.16669 7.00033 1.16669ZM7.00033 3.50002C6.84562 3.50002 6.69724 3.56148 6.58785 3.67087C6.47845 3.78027 6.41699 3.92864 6.41699 4.08335V7.00002C6.41703 7.15472 6.47851 7.30307 6.58791 7.41244L8.33791 9.16244C8.44793 9.2687 8.59528 9.32749 8.74823 9.32616C8.90117 9.32483 9.04748 9.26349 9.15564 9.15533C9.26379 9.04718 9.32514 8.90087 9.32647 8.74792C9.3278 8.59497 9.269 8.44762 9.16274 8.3376L7.58366 6.75852V4.08335C7.58366 3.92864 7.5222 3.78027 7.4128 3.67087C7.30341 3.56148 7.15504 3.50002 7.00033 3.50002Z" fill="#D3A77D"/>
</svg>
