<svg width="30" height="30" viewBox="0 0 30 30" fill="none" xmlns="http://www.w3.org/2000/svg">
<rect width="30" height="30" rx="5" fill="white"/>
<g clip-path="url(#clip0_336_807)">
<path d="M21.7324 21.0909C22.3066 21.3721 22.7812 21.7676 23.1562 22.2774C23.5312 22.7871 23.7686 23.3614 23.8682 24H22.9014C22.8369 23.666 22.7168 23.3555 22.541 23.0684C22.3652 22.7813 22.1514 22.5352 21.8994 22.3301C21.6475 22.125 21.3633 21.961 21.0469 21.8379C20.7305 21.7149 20.4023 21.6563 20.0625 21.6621C19.7168 21.6621 19.3887 21.7207 19.0781 21.8379C18.7676 21.9551 18.4834 22.1162 18.2256 22.3213C17.9678 22.5264 17.7539 22.7754 17.584 23.0684C17.4141 23.3614 17.2939 23.6719 17.2236 24H16.2568C16.3506 23.3672 16.585 22.7959 16.96 22.2862C17.335 21.7764 17.8125 21.378 18.3926 21.0909C18.0586 20.8272 17.8008 20.5078 17.6191 20.1328C17.4375 19.7578 17.3438 19.3594 17.3379 18.9375C17.3379 18.6739 17.373 18.419 17.4434 18.1729C17.5137 17.9268 17.6191 17.6953 17.7598 17.4785C17.9004 17.2617 18.0674 17.0684 18.2607 16.8985C18.4541 16.7285 18.6709 16.585 18.9111 16.4678C18.7529 16.2393 18.5713 16.0371 18.3662 15.8614C18.1611 15.6856 17.9385 15.5303 17.6982 15.3955C17.458 15.2608 17.2061 15.1641 16.9424 15.1055C16.6787 15.0469 16.4062 15.0117 16.125 15C15.6562 15 15.208 15.0909 14.7803 15.2725C14.3525 15.4541 13.9805 15.7207 13.6641 16.0723C13.8047 16.4532 13.875 16.8457 13.875 17.25C13.875 17.7891 13.7549 18.2959 13.5146 18.7705C13.2744 19.2451 12.9375 19.6436 12.5039 19.9659C12.8848 20.1592 13.2275 20.3965 13.5322 20.6778C13.8369 20.959 14.1006 21.2754 14.3232 21.627C14.5459 21.9785 14.7129 22.3535 14.8242 22.752C14.9355 23.1504 14.9941 23.5664 15 24H13.875C13.875 23.5371 13.7871 23.1006 13.6113 22.6905C13.4355 22.2803 13.1953 21.9229 12.8906 21.6182C12.5859 21.3135 12.2256 21.0703 11.8096 20.8887C11.3936 20.7071 10.957 20.6192 10.5 20.625C10.0312 20.625 9.59473 20.7129 9.19043 20.8887C8.78613 21.0645 8.42871 21.3047 8.11816 21.6094C7.80762 21.9141 7.56445 22.2744 7.38867 22.6905C7.21289 23.1065 7.125 23.543 7.125 24H6C6 23.5723 6.05859 23.1592 6.17578 22.7608C6.29297 22.3623 6.45996 21.9873 6.67676 21.6358C6.89355 21.2842 7.1543 20.9678 7.45898 20.6866C7.76367 20.4053 8.10938 20.1651 8.49609 19.9659C8.0625 19.6436 7.72559 19.2451 7.48535 18.7705C7.24512 18.2959 7.125 17.7891 7.125 17.25C7.125 16.7871 7.21289 16.3506 7.38867 15.9405C7.56445 15.5303 7.80469 15.1729 8.10938 14.8682C8.41406 14.5635 8.77148 14.3203 9.18164 14.1387C9.5918 13.9571 10.0312 13.8692 10.5 13.875C10.998 13.875 11.4697 13.9805 11.915 14.1914C12.3604 14.4024 12.7471 14.6953 13.0752 15.0703C13.2275 14.9239 13.3916 14.792 13.5674 14.6748C13.7432 14.5576 13.9277 14.4463 14.1211 14.3409C13.6875 14.0186 13.3506 13.6201 13.1104 13.1455C12.8701 12.6709 12.75 12.1641 12.75 11.625C12.75 11.1621 12.8379 10.7256 13.0137 10.3155C13.1895 9.9053 13.4297 9.54788 13.7344 9.24319C14.0391 8.93851 14.3965 8.69534 14.8066 8.5137C15.2168 8.33206 15.6562 8.24417 16.125 8.25003C16.5879 8.25003 17.0244 8.33792 17.4346 8.5137C17.8447 8.68948 18.2021 8.92972 18.5068 9.23441C18.8115 9.53909 19.0547 9.89944 19.2363 10.3155C19.418 10.7315 19.5059 11.168 19.5 11.625C19.5 12.1641 19.3799 12.6709 19.1396 13.1455C18.8994 13.6201 18.5625 14.0186 18.1289 14.3409C18.5391 14.5576 18.9082 14.8213 19.2363 15.1319C19.5645 15.4424 19.8428 15.8028 20.0713 16.2129C20.4463 16.2129 20.7979 16.2832 21.126 16.4239C21.4541 16.5645 21.7441 16.7608 21.9961 17.0127C22.248 17.2647 22.4414 17.5518 22.5762 17.8741C22.7109 18.1963 22.7812 18.5508 22.7871 18.9375C22.7871 19.3594 22.6963 19.7578 22.5146 20.1328C22.333 20.5078 22.0723 20.8272 21.7324 21.0909ZM10.5 19.5C10.8105 19.5 11.1006 19.4414 11.3701 19.3242C11.6396 19.2071 11.8799 19.0459 12.0908 18.8409C12.3018 18.6358 12.4629 18.3985 12.5742 18.1289C12.6855 17.8594 12.7441 17.5664 12.75 17.25C12.75 16.9395 12.6914 16.6494 12.5742 16.3799C12.457 16.1104 12.2959 15.8701 12.0908 15.6592C11.8857 15.4483 11.6484 15.2871 11.3789 15.1758C11.1094 15.0645 10.8164 15.0059 10.5 15C10.1895 15 9.89941 15.0586 9.62988 15.1758C9.36035 15.293 9.12012 15.4541 8.90918 15.6592C8.69824 15.8643 8.53711 16.1016 8.42578 16.3711C8.31445 16.6407 8.25586 16.9336 8.25 17.25C8.25 17.5606 8.30859 17.8506 8.42578 18.1201C8.54297 18.3897 8.7041 18.6299 8.90918 18.8409C9.11426 19.0518 9.35156 19.2129 9.62109 19.3242C9.89062 19.4356 10.1836 19.4942 10.5 19.5ZM13.875 11.625C13.875 11.9356 13.9336 12.2256 14.0508 12.4951C14.168 12.7647 14.3291 13.0049 14.5342 13.2159C14.7393 13.4268 14.9766 13.5879 15.2461 13.6992C15.5156 13.8106 15.8086 13.8692 16.125 13.875C16.4355 13.875 16.7256 13.8164 16.9951 13.6992C17.2646 13.5821 17.5049 13.4209 17.7158 13.2159C17.9268 13.0108 18.0879 12.7735 18.1992 12.5039C18.3105 12.2344 18.3691 11.9414 18.375 11.625C18.375 11.3145 18.3164 11.0244 18.1992 10.7549C18.082 10.4854 17.9209 10.2451 17.7158 10.0342C17.5107 9.82327 17.2734 9.66214 17.0039 9.55081C16.7344 9.43948 16.4414 9.38089 16.125 9.37503C15.8145 9.37503 15.5244 9.43362 15.2549 9.55081C14.9854 9.668 14.7451 9.82913 14.5342 10.0342C14.3232 10.2393 14.1621 10.4766 14.0508 10.7461C13.9395 11.0157 13.8809 11.3086 13.875 11.625ZM20.0625 17.1621C19.8164 17.1621 19.5879 17.209 19.377 17.3028C19.166 17.3965 18.9785 17.5225 18.8145 17.6807C18.6504 17.8389 18.5215 18.0264 18.4277 18.2432C18.334 18.46 18.2871 18.6914 18.2871 18.9375C18.2871 19.1836 18.334 19.4121 18.4277 19.6231C18.5215 19.834 18.6475 20.0215 18.8057 20.1856C18.9639 20.3496 19.1514 20.4785 19.3682 20.5723C19.585 20.666 19.8164 20.7129 20.0625 20.7129C20.3086 20.7129 20.5371 20.666 20.748 20.5723C20.959 20.4785 21.1465 20.3526 21.3105 20.1944C21.4746 20.0362 21.6035 19.8487 21.6973 19.6319C21.791 19.4151 21.8379 19.1836 21.8379 18.9375C21.8379 18.6914 21.791 18.4629 21.6973 18.252C21.6035 18.041 21.4775 17.8535 21.3193 17.6895C21.1611 17.5254 20.9736 17.3965 20.7568 17.3028C20.54 17.209 20.3086 17.1621 20.0625 17.1621Z" fill="#D3A77D"/>
</g>
<defs>
<clipPath id="clip0_336_807">
<rect width="18" height="18" fill="white" transform="translate(6 6)"/>
</clipPath>
</defs>
</svg>
