<svg width="30" height="30" viewBox="0 0 30 30" fill="none" xmlns="http://www.w3.org/2000/svg">
<rect width="30" height="30" rx="5" fill="white"/>
<path d="M15.1897 20.5501L11.9925 17.8366C11.857 17.7215 11.685 17.6582 11.5072 17.6581H9.5625C9.16468 17.6581 8.78314 17.5001 8.50184 17.2188C8.22054 16.9375 8.0625 16.5559 8.0625 16.1581V13.8436C8.0625 13.4458 8.22054 13.0642 8.50184 12.7829C8.78314 12.5016 9.16468 12.3436 9.5625 12.3436H11.508C11.6858 12.3435 11.8578 12.2802 11.9932 12.1651L15.1897 9.45011C15.2989 9.35753 15.4322 9.29809 15.5739 9.27881C15.7157 9.25953 15.8601 9.28121 15.9899 9.34129C16.1198 9.40138 16.2297 9.49735 16.3068 9.61789C16.3839 9.73844 16.4249 9.87852 16.425 10.0216V19.9801C16.4249 20.1232 16.3839 20.2633 16.3068 20.3838C16.2297 20.5044 16.1198 20.6003 15.9899 20.6604C15.8601 20.7205 15.7157 20.7422 15.5739 20.7229C15.4322 20.7036 15.2989 20.6442 15.1897 20.5516V20.5501Z" stroke="#D3A77D" stroke-width="1.125" stroke-linejoin="round"/>
<path d="M18.498 12.4066C18.858 12.6691 19.158 13.0471 19.3665 13.5031C19.5743 13.9584 19.6845 14.4744 19.6845 15.0001C19.6845 15.5251 19.5743 16.0426 19.3665 16.4971C19.158 16.9524 18.8588 17.3311 18.498 17.5936M20.025 10.8181C20.6063 11.2419 21.09 11.8516 21.4253 12.5859C21.7605 13.3194 21.9375 14.1526 21.9375 15.0001C21.9375 15.8476 21.7605 16.6801 21.4253 17.4151C21.0893 18.1486 20.6063 18.7584 20.025 19.1821" stroke="#D3A77D" stroke-width="1.125" stroke-linecap="round" stroke-linejoin="round"/>
</svg>
